<svg width="158" height="48" viewBox="0 0 158 48" fill="none" xmlns="http://www.w3.org/2000/svg">
<path d="M53.1752 0H52.6125V48H53.1752V0Z" fill="#E6E7E8"/>
<path d="M8.09961 34.7378C8.98473 35.029 9.90023 35.219 10.8285 35.3043L10.8041 35.3264C10.636 35.479 10.5006 35.6637 10.4059 35.8696C10.3111 36.0755 10.2591 36.2983 10.2529 36.5247C10.2467 36.751 10.2865 36.9763 10.3698 37.187C10.453 37.3977 10.5782 37.5896 10.7377 37.7511C10.9035 37.9187 11.1031 38.0493 11.3234 38.1345C11.5438 38.2196 11.7797 38.2572 12.0157 38.2448C12.2913 38.2313 12.5595 38.1519 12.7976 38.0134C12.9188 37.9397 13.0317 37.8532 13.1343 37.7555L22.0076 28.8789C22.0076 30.5189 22.0209 32.2316 22.0076 33.9267C21.9943 37.1581 19.1281 40.2353 15.8809 40.5196C15.4711 40.5571 15.0547 40.5615 14.6139 40.5615H14.2086C12.5141 40.5615 10.8218 40.5615 9.09414 40.5725H8.11954L8.09961 34.7378Z" fill="url(#paint0_linear_351_1255)"/>
<path d="M39.3691 40.5068H38.1664C36.2615 40.5068 34.3676 40.5178 32.4738 40.5178C31.9134 40.5131 31.3548 40.4541 30.8059 40.3414C29.288 39.9834 27.9354 39.1272 26.9661 37.9107C25.9969 36.6943 25.4675 35.1885 25.4633 33.6361C25.4633 32.1702 25.4124 30.312 25.4102 28.8418L34.1151 37.7713C34.4453 38.109 34.8962 38.3032 35.3696 38.3114C35.8431 38.3197 36.3006 38.1414 36.6424 37.8154C36.8186 37.649 36.9588 37.4486 37.0547 37.2266C37.1505 37.0045 37.2 36.7653 37.2 36.5237C37.2 36.282 37.1505 36.0428 37.0547 35.8207C36.9588 35.5987 36.8186 35.3984 36.6424 35.232L36.607 35.1989C37.5411 35.147 38.464 34.9714 39.3514 34.6765L39.3691 40.5068Z" fill="url(#paint1_linear_351_1255)"/>
<path d="M21.4982 47.0141L21.2081 46.7232C20.9023 46.4138 20.6634 46.0455 20.506 45.6408C20.3486 45.2361 20.2761 44.8037 20.2929 44.3701C20.3097 43.9365 20.4155 43.5109 20.6037 43.1195C20.792 42.7281 21.0587 42.3792 21.3875 42.0942C21.4495 42.0391 21.5115 41.984 21.5713 41.9267C22.167 41.3655 22.9561 41.0527 23.7764 41.0527C24.5966 41.0527 25.3857 41.3655 25.9814 41.9267L26.1209 42.0545C26.4498 42.3391 26.7168 42.6875 26.9057 43.0784C27.0946 43.4693 27.2013 43.8944 27.2193 44.3277C27.2373 44.761 27.1663 45.1935 27.0106 45.5985C26.8549 46.0036 26.6177 46.3728 26.3137 46.6835L25.9814 47.0141C25.6872 47.3074 25.3378 47.54 24.9532 47.6988C24.5685 47.8575 24.1562 47.9392 23.7398 47.9392C23.3234 47.9392 22.9111 47.8575 22.5265 47.6988C22.1418 47.54 21.7924 47.3074 21.4982 47.0141Z" fill="url(#paint2_linear_351_1255)"/>
<path d="M22.0742 28.8682C22.0742 28.8682 20.9823 38.6397 12.0093 38.1547C12.2839 38.1449 12.5522 38.0693 12.7912 37.9343C12.9142 37.8622 13.0287 37.7764 13.1323 37.6786L22.0742 28.8682Z" fill="url(#paint3_linear_351_1255)"/>
<path d="M25.4873 28.8496C25.4873 28.8496 26.3224 38.6476 35.3064 38.3963C35.0311 38.3791 34.7641 38.2951 34.5289 38.1516C34.4083 38.0756 34.2961 37.9869 34.1945 37.8871L25.4873 28.8496Z" fill="url(#paint4_linear_351_1255)"/>
<path d="M20.6547 3.41936C19.96 4.03688 19.3366 4.72963 18.7963 5.48476V5.45169C18.7474 5.23038 18.654 5.02117 18.5219 4.83661C18.3898 4.65204 18.2216 4.49592 18.0274 4.37757C17.8332 4.25923 17.617 4.18111 17.3917 4.14789C17.1665 4.11467 16.9368 4.12704 16.7164 4.18424C16.4876 4.24379 16.2741 4.35128 16.0904 4.49954C15.9067 4.64779 15.7569 4.83339 15.651 5.0439C15.5247 5.28779 15.46 5.55866 15.4627 5.83303C15.4648 5.9743 15.4834 6.11485 15.5181 6.25184L18.8074 18.3378C17.3765 17.5222 15.8814 16.6736 14.4106 15.8183C11.6042 14.1938 10.3572 10.1842 11.7371 7.24376C11.9077 6.87124 12.1137 6.50974 12.3329 6.1306C12.3573 6.09754 12.3728 6.05787 12.395 6.0226L12.5323 5.78013C13.374 4.3165 14.2223 2.85728 15.0818 1.3716L15.5735 0.518555L20.6547 3.41936Z" fill="url(#paint5_linear_351_1255)"/>
<path d="M0 27.4849L0.600267 26.4467C1.54533 24.8023 2.49114 23.1653 3.43768 21.5356C3.7212 21.055 4.05133 20.6031 4.42336 20.1866C5.49379 19.0576 6.91502 18.3201 8.45802 18.0929C10.001 17.8658 11.5759 18.1623 12.929 18.9346C14.207 19.662 15.8483 20.5525 17.1375 21.2865L5.01477 24.324C4.55593 24.4391 4.16147 24.7301 3.91747 25.1336C3.67346 25.537 3.59973 26.0202 3.71235 26.4775C3.77002 26.7122 3.87508 26.9328 4.02113 27.1258C4.16718 27.3188 4.35117 27.4803 4.5619 27.6003C4.77263 27.7203 5.00569 27.7964 5.2469 27.8239C5.48812 27.8514 5.73244 27.8298 5.965 27.7604L6.01373 27.7472C5.58815 28.5837 5.27748 29.4734 5.09008 30.3923L0 27.4849Z" fill="url(#paint6_linear_351_1255)"/>
<path d="M3.27371 8.82989L3.6702 8.72409C4.09241 8.61499 4.53261 8.59311 4.96364 8.6598C5.39468 8.7265 5.80742 8.88034 6.17642 9.11186C6.54541 9.34338 6.86284 9.64766 7.10914 10.0059C7.35543 10.3642 7.52537 10.7689 7.60847 11.1951C7.62619 11.2744 7.64391 11.356 7.66385 11.4375C7.85502 12.2313 7.73333 13.0678 7.32382 13.775C6.91431 14.4822 6.24809 15.0064 5.46214 15.2399L5.28272 15.2972C4.87016 15.4386 4.43294 15.4946 3.99784 15.462C3.56275 15.4293 3.13894 15.3085 2.75239 15.1071C2.36583 14.9057 2.02468 14.6278 1.74982 14.2906C1.47497 13.9534 1.27221 13.5638 1.15396 13.1458L1.03213 12.705C0.922619 12.3041 0.893776 11.8856 0.947258 11.4735C1.00074 11.0615 1.13549 10.664 1.34378 10.3039C1.55207 9.94384 1.82979 9.62827 2.16098 9.37531C2.49218 9.12235 2.87033 8.937 3.27371 8.82989Z" fill="url(#paint7_linear_351_1255)"/>
<path d="M18.7721 18.408C18.7721 18.408 10.8136 12.5799 15.7221 5.08984C15.5934 5.33235 15.5265 5.60255 15.5271 5.87677C15.5286 6.01867 15.5464 6.15993 15.5803 6.29778L18.7721 18.408Z" fill="url(#paint8_linear_351_1255)"/>
<path d="M17.0775 21.3557C17.0775 21.3557 8.13332 17.1676 3.86279 25.0434C4.01495 24.8151 4.22106 24.6274 4.46306 24.4967C4.58948 24.43 4.72328 24.3783 4.86176 24.3424L17.0775 21.3557Z" fill="url(#paint9_linear_351_1255)"/>
<path d="M41.6331 29.898C41.4429 28.9865 41.1501 28.0992 40.7604 27.2529L40.7914 27.2661C41.0086 27.3347 41.2375 27.359 41.4644 27.3374C41.6912 27.3159 41.9114 27.249 42.1116 27.1407C42.3118 27.0324 42.488 26.885 42.6296 26.7073C42.7712 26.5296 42.8752 26.3253 42.9355 26.1066C43.0335 25.7459 43.0081 25.363 42.8633 25.0182C42.7185 24.6734 42.4626 24.3863 42.1359 24.2022C42.0112 24.133 41.8789 24.0783 41.7417 24.039L29.5813 20.8318C31.0055 20.0052 32.4918 19.1434 33.9714 18.3013C36.7889 16.6966 40.9 17.6268 42.7694 20.2852C43.0086 20.618 43.2124 20.9773 43.4339 21.3565C43.4516 21.3939 43.4782 21.427 43.4959 21.4623L43.6399 21.7025C44.4927 23.1617 45.3366 24.621 46.2071 26.111L46.7033 26.9619L41.6331 29.898Z" fill="url(#paint10_linear_351_1255)"/>
<path d="M31.0166 0.0654297L31.6213 1.10143C32.5781 2.7392 33.5284 4.36815 34.4764 6.00151C34.7524 6.48674 34.9801 6.99761 35.1564 7.52685C35.6038 9.01368 35.5351 10.6071 34.9613 12.0503C34.3874 13.4935 33.342 14.7024 31.9934 15.482C30.7198 16.2205 29.125 17.1881 27.8469 17.9266L31.2646 5.95963C31.3954 5.50599 31.3402 5.01925 31.111 4.60608C30.8818 4.19291 30.4974 3.88699 30.042 3.75537C29.8088 3.68789 29.5642 3.66829 29.3232 3.69776C29.0822 3.72722 28.8497 3.80513 28.6398 3.92676C28.43 4.04839 28.2471 4.2112 28.1025 4.4053C27.9578 4.5994 27.8542 4.82074 27.7982 5.05588V5.10437C27.283 4.31985 26.6647 3.60743 25.9597 2.98608L31.0166 0.0654297Z" fill="url(#paint11_linear_351_1255)"/>
<path d="M45.6156 12.2133L45.5092 12.6101C45.3921 13.028 45.1905 13.4176 44.9167 13.7552C44.6429 14.0928 44.3027 14.3711 43.9169 14.5732C43.5311 14.7753 43.108 14.8968 42.6733 14.9303C42.2387 14.9638 41.8018 14.9086 41.3893 14.768L41.1501 14.6931C40.3631 14.4624 39.6949 13.9403 39.2829 13.2343C38.8709 12.5282 38.7464 11.6919 38.9351 10.8974C38.9484 10.8356 38.9639 10.7739 38.9772 10.7122C39.0602 10.2862 39.2298 9.88147 39.4756 9.52296C39.7214 9.16445 40.0381 8.85966 40.4064 8.62728C40.7748 8.39489 41.1869 8.23981 41.6176 8.17153C42.0482 8.10325 42.4884 8.12322 42.911 8.2302L43.3651 8.35144C43.7679 8.45768 44.1456 8.6419 44.4767 8.89355C44.8079 9.14521 45.0859 9.45937 45.2949 9.81805C45.5039 10.1767 45.6398 10.5729 45.6949 10.9839C45.7499 11.3949 45.7229 11.8127 45.6156 12.2133Z" fill="url(#paint12_linear_351_1255)"/>
<path d="M29.5303 20.7806C29.5303 20.7806 38.5808 16.8372 42.6453 24.8122C42.4988 24.5799 42.2972 24.3869 42.0583 24.2501C41.9342 24.1808 41.8027 24.1253 41.6663 24.0848L29.5303 20.7806Z" fill="url(#paint13_linear_351_1255)"/>
<path d="M27.8203 17.8525C27.8203 17.8525 35.9294 12.2339 31.2181 4.62695C31.3421 4.87198 31.4023 5.14409 31.3931 5.41829C31.3891 5.55999 31.3675 5.70066 31.3289 5.8371L27.8203 17.8525Z" fill="url(#paint14_linear_351_1255)"/>
<path d="M56.8232 12.7808C57.0868 12.7978 57.3471 12.7151 57.552 12.5493C57.6936 12.4133 57.7809 12.2309 57.7978 12.0357C57.8178 11.8374 57.8289 11.4913 57.8289 10.9975V4.73523C57.8289 4.32964 57.8421 3.98137 57.8709 3.69261L56.8232 3.74992V3.11289C58.1833 3.09305 59.2597 3.08203 60.0726 3.08203C61.5183 3.08203 62.6133 3.33331 63.3575 3.83588C64.1017 4.33846 64.4709 5.07762 64.465 6.05337C64.4641 6.62015 64.3112 7.17642 64.022 7.66469C63.656 8.23588 63.1225 8.68139 62.4936 8.94096C61.7701 9.27747 60.8102 9.44647 59.6141 9.44794C59.3926 9.44794 59.2154 9.44794 59.0892 9.43251V11.5354C59.0944 11.9172 59.0796 12.2991 59.0449 12.6794L60.385 12.6089V13.2591H56.8232V12.7808ZM61.5656 8.55521C62.0218 8.3475 62.4062 8.01036 62.6706 7.58606C62.935 7.16177 63.0676 6.66921 63.0518 6.1702C63.0518 5.30172 62.7846 4.66395 62.25 4.2569C61.7154 3.84985 60.9771 3.64706 60.035 3.64853C59.7867 3.6225 59.5383 3.69541 59.3439 3.85132C59.2167 3.98314 59.1386 4.15423 59.1224 4.33626C59.1025 4.52582 59.0936 4.86969 59.0936 5.37446V8.83736C59.4078 8.86997 59.7236 8.88469 60.0394 8.88144C60.5663 8.88805 61.0879 8.77654 61.5656 8.55521Z" fill="#E6E7E8"/>
<path d="M64.2676 12.7801C64.4748 12.7904 64.6796 12.7322 64.8501 12.6148C65.0002 12.4958 65.122 12.3453 65.2067 12.1739C65.3337 11.9132 65.4432 11.6444 65.5346 11.3694L65.6808 10.9638L68.6821 2.83887H69.0321L72.2815 11.0872C72.3932 11.3627 72.4857 11.6455 72.5583 11.9337C72.6274 12.1767 72.6617 12.4283 72.6602 12.6809L73.6503 12.6236V13.2606H70.3123V12.7801C70.8853 12.7713 71.1717 12.5398 71.1717 12.0857C71.1618 11.8521 71.1124 11.6219 71.0256 11.4046L70.5161 10.0402L66.7284 10.1284C66.5823 10.5229 66.4139 11.0409 66.219 11.6713C66.1215 11.991 65.9975 12.3326 65.8557 12.6721L66.992 12.6148V13.2518H64.2676V12.7801ZM70.3123 9.50455L69.2779 6.736L68.6134 4.95275H68.589L67.9821 6.58611L67.1958 8.79037L66.9477 9.50015L70.3123 9.50455Z" fill="#E6E7E8"/>
<path d="M74.2751 12.7802C74.5387 12.7977 74.7992 12.7149 75.0039 12.5487C75.1451 12.4122 75.2331 12.2302 75.252 12.0352C75.2719 11.8368 75.2808 11.4907 75.2808 10.997V4.73464C75.2808 4.32906 75.2963 3.98078 75.3251 3.69203L74.2751 3.74934V3.1123H77.5533V3.58843C77.29 3.57335 77.0305 3.6558 76.8246 3.81988C76.6832 3.95719 76.5953 4.13995 76.5765 4.33567C76.5588 4.53406 76.5477 4.88012 76.5477 5.37388V11.5921C76.5533 11.9695 76.5393 12.3469 76.5057 12.7229L79.2279 12.6788C79.4907 12.6933 79.7533 12.6481 79.9959 12.5465C80.2384 12.4449 80.4545 12.2896 80.6278 12.0925C80.9379 11.7111 81.0929 11.0983 81.0929 10.2585H81.5891L81.5005 13.2585H74.2751V12.7802Z" fill="#E6E7E8"/>
<path d="M82.6968 12.7802C82.9603 12.7972 83.2206 12.7145 83.4255 12.5487C83.5663 12.4121 83.6535 12.23 83.6714 12.0352C83.6913 11.8368 83.7002 11.4907 83.7002 10.997V4.73464C83.7002 4.32906 83.7157 3.98078 83.7445 3.69203L82.6968 3.74934V3.1123H85.975V3.58843C85.7116 3.57272 85.4518 3.65524 85.2462 3.81988C85.1048 3.95719 85.0169 4.13995 84.9982 4.33567C84.9782 4.53406 84.9694 4.88012 84.9694 5.37388V11.5348C84.9746 11.9166 84.9598 12.2985 84.9251 12.6788L85.975 12.6215V13.2585H82.6968V12.7802Z" fill="#E6E7E8"/>
<path d="M59.0803 25.4398C58.3381 25.0332 57.7309 24.4205 57.3326 23.6764C56.8967 22.8399 56.681 21.9071 56.7058 20.9652C56.7014 20.0401 56.8978 19.1251 57.2817 18.2826C57.6558 17.454 58.253 16.7445 59.0072 16.2326C59.8257 15.6905 60.793 15.414 61.7759 15.4413C62.3148 15.446 62.8509 15.5201 63.3707 15.6617C63.8716 15.785 64.351 15.9826 64.7927 16.248L64.7329 15.5515H65.5348V18.8645H65.0098C64.9975 18.4701 64.9054 18.0821 64.7391 17.7239C64.5728 17.3656 64.3356 17.0443 64.0419 16.7793C63.441 16.2667 62.6688 15.9969 61.8778 16.0232C61.2015 16.0192 60.5412 16.2275 59.9906 16.6184C59.4031 17.0396 58.9365 17.6065 58.6373 18.2627C58.2925 19.0056 58.1207 19.8164 58.1344 20.6345C58.121 21.4688 58.2895 22.296 58.6284 23.0592C58.9263 23.7355 59.4052 24.3173 60.0128 24.7411C60.6081 25.1474 61.3154 25.36 62.0373 25.3494C62.4732 25.3474 62.9069 25.2866 63.3264 25.1687C63.7548 25.0545 64.1612 24.8705 64.5292 24.6242V21.4501L63.5103 21.5074V20.8704H66.8017V21.3553C66.3366 21.3553 66.045 21.5317 65.9268 21.8843C65.8066 22.2711 65.7483 22.6743 65.7541 23.0791V25.2988H65.3598C64.8171 25.3293 64.2843 25.457 63.7871 25.6757C63.4526 25.8022 63.106 25.8946 62.7527 25.9512C62.3914 26.0147 62.0254 26.0486 61.6585 26.0526C60.7605 26.0718 59.8726 25.8608 59.0803 25.4398Z" fill="#E6E7E8"/>
<path d="M67.9093 25.3464C68.1726 25.3614 68.4321 25.279 68.638 25.1149C68.7794 24.9776 68.8673 24.7948 68.8861 24.5991C68.9038 24.4007 68.9149 24.0547 68.9149 23.5609V17.2986C68.9116 16.9505 68.9263 16.6025 68.9592 16.256L67.9093 16.3133V15.6763C68.9193 15.6557 69.682 15.6461 70.1974 15.6476C70.6625 15.6476 71.0125 15.6476 71.2451 15.6608C72.6139 15.6799 73.6166 15.9092 74.253 16.3486C74.5631 16.5583 74.8137 16.8438 74.9809 17.1777C75.1481 17.5116 75.2262 17.8827 75.2077 18.2553C75.2236 18.9056 75.0122 19.5413 74.6096 20.0539C74.2021 20.5844 73.4933 20.9518 72.4833 21.1561C72.6491 21.2838 72.7979 21.4319 72.9263 21.5969C73.0636 21.7733 73.2482 22.0444 73.48 22.4103L74.4701 23.9533C74.6916 24.2905 74.8622 24.5506 75.0017 24.727C75.1403 24.907 75.3144 25.0571 75.5134 25.1678C75.7399 25.2857 75.9932 25.3434 76.2488 25.3353V25.8115H74.4125C74.1658 25.6077 73.943 25.377 73.748 25.1237C73.5686 24.8879 73.356 24.5815 73.1145 24.2046L72.1377 22.6616L71.9494 22.3574C71.7922 22.0951 71.6571 21.8835 71.5397 21.7181C71.4298 21.558 71.3028 21.4102 71.1609 21.2773C71.0745 21.2773 70.9394 21.2905 70.7533 21.2905C70.492 21.2905 70.297 21.2905 70.1708 21.2773V24.0899C70.176 24.4718 70.1612 24.8536 70.1265 25.2339L71.1764 25.1766V25.8137H67.8982L67.9093 25.3464ZM73.7945 18.4162C73.7945 17.6814 73.5811 17.1303 73.1544 16.763C72.7276 16.3956 72.072 16.2119 71.1875 16.2119C70.9277 16.1877 70.6682 16.2599 70.4587 16.4147C70.317 16.5417 70.2284 16.7172 70.2107 16.9062C70.1907 17.1002 70.1819 17.4441 70.1819 17.9378V20.7196C70.4742 20.7395 70.6869 20.7483 70.822 20.7483C72.8037 20.7483 73.7945 19.9709 73.7945 18.4162Z" fill="#E6E7E8"/>
<path d="M79.1992 25.288C78.4472 24.8041 77.8507 24.1156 77.4803 23.3042C77.1116 22.5012 76.9226 21.628 76.9266 20.7451C76.9288 19.8774 77.1255 19.0212 77.5025 18.2388C77.8842 17.4283 78.4779 16.7347 79.2213 16.2307C80.0414 15.6864 81.0114 15.4099 81.9967 15.4394C82.955 15.4066 83.9019 15.6544 84.7201 16.152C85.5383 16.6496 86.1917 17.3752 86.5995 18.2388C86.9867 19.0199 87.1905 19.8785 87.1953 20.7495C87.1917 21.6155 86.995 22.47 86.6194 23.2513C86.2391 24.0646 85.6453 24.7606 84.9006 25.266C84.0803 25.8099 83.1104 26.0864 82.1252 26.0573C80.9512 26.0573 79.9759 25.8009 79.1992 25.288ZM84.0943 24.8185C84.6383 24.3789 85.0594 23.8073 85.317 23.1587C85.5941 22.4813 85.7356 21.7564 85.7334 21.025C85.7373 20.2101 85.587 19.4018 85.2904 18.6422C85.019 17.9145 84.5681 17.2664 83.9791 16.7576C83.4227 16.2743 82.7064 16.0128 81.9679 16.0235C81.2618 16.007 80.572 16.2353 80.0165 16.6694C79.4639 17.1091 79.0388 17.6873 78.785 18.3446C78.5093 19.0263 78.3687 19.7546 78.3707 20.4894C78.3699 21.2736 78.5079 22.0518 78.7783 22.7884C79.0391 23.5225 79.4799 24.1801 80.0608 24.7017C80.6201 25.1719 81.323 25.4394 82.0548 25.4606C82.7866 25.4818 83.504 25.2555 84.0899 24.8185H84.0943Z" fill="#E6E7E8"/>
<path d="M90.8612 25.5122C90.2471 25.1278 89.7926 24.5363 89.5809 23.8458C89.2909 22.8849 89.1585 21.8838 89.1888 20.881V17.9383C89.1888 17.3182 89.208 16.7576 89.2464 16.2565L88.1987 16.2984V15.6768H91.4614V16.1551C91.0339 16.1551 90.7637 16.2653 90.6463 16.4879C90.5227 16.7402 90.4627 17.0186 90.4713 17.2991V20.9538C90.4584 21.6873 90.5328 22.4198 90.6928 23.136C90.8237 23.7173 91.1334 24.2435 91.5788 24.6415C92.0218 25.0339 92.6553 25.23 93.4793 25.23C94.4893 25.23 95.2402 24.8847 95.7319 24.194C96.2237 23.5034 96.4784 22.5629 96.4961 21.3726L96.5404 17.2991C96.5404 16.8935 96.5537 16.5452 96.5825 16.2565L95.5481 16.3138V15.6768H98.2703V16.1551C98.0033 16.1332 97.7377 16.2119 97.5261 16.3755C97.3853 16.5121 97.2982 16.6942 97.2802 16.8891C97.2603 17.0875 97.2492 17.4336 97.2492 17.9273L97.2204 21.2888C97.2116 22.6907 96.8985 23.834 96.2813 24.7186C95.664 25.6033 94.671 26.0441 93.3021 26.0412C92.2714 26.0515 91.4577 25.8751 90.8612 25.5122Z" fill="#E6E7E8"/>
<path d="M99.5083 25.3464C99.7716 25.3614 100.031 25.279 100.237 25.1149C100.379 24.978 100.466 24.7949 100.483 24.5991C100.503 24.4007 100.514 24.0547 100.514 23.5609V17.2986C100.514 16.893 100.527 16.5447 100.556 16.256L99.5083 16.3133V15.6763C100.868 15.6557 101.951 15.6461 102.758 15.6476C104.203 15.6476 105.298 15.8982 106.043 16.3993C106.787 16.9004 107.156 17.6403 107.15 18.619C107.149 19.185 106.996 19.7405 106.707 20.2281C106.341 20.7993 105.808 21.2448 105.179 21.5043C104.455 21.8409 103.495 22.0098 102.299 22.0113C102.078 22.0113 101.9 22.0113 101.774 21.9959V24.0988C101.779 24.4806 101.765 24.8625 101.73 25.2428L103.07 25.1722V25.8225H99.5083V25.3464ZM104.251 21.1186C104.708 20.9119 105.094 20.5751 105.36 20.1508C105.625 19.7264 105.759 19.2333 105.744 18.7336C105.744 17.8651 105.476 17.2273 104.942 16.8203C104.407 16.4132 103.669 16.2104 102.727 16.2119C102.478 16.1859 102.23 16.2588 102.036 16.4147C101.908 16.5465 101.83 16.7176 101.814 16.8996C101.794 17.0892 101.785 17.4331 101.785 17.9378V21.4007C102.099 21.4344 102.415 21.4491 102.731 21.4448C103.256 21.4504 103.775 21.339 104.251 21.1186Z" fill="#E6E7E8"/>
<path d="M58.8543 38.4337C58.4206 38.3196 58.0094 38.1333 57.6383 37.8826L57.7114 38.5064H56.9538L56.8674 35.4204H57.4345C57.4832 36.2507 57.7697 36.8907 58.2939 37.3403C58.8523 37.8017 59.5621 38.0419 60.2874 38.0148C60.8267 38.0318 61.3549 37.8602 61.7803 37.5299C61.9779 37.3718 62.1355 37.1698 62.2405 36.9401C62.3455 36.7104 62.395 36.4595 62.385 36.2074C62.3955 35.8236 62.2753 35.4476 62.0439 35.1405C61.8116 34.843 61.5245 34.5924 61.1978 34.4021C60.7558 34.1492 60.3011 33.9189 59.8355 33.7121C59.1843 33.4035 58.6675 33.1331 58.285 32.901C57.8966 32.665 57.5617 32.3512 57.3016 31.9796C57.0185 31.5636 56.8758 31.0687 56.894 30.5666C56.897 30.1653 56.9885 29.7695 57.162 29.4072C57.3677 28.9939 57.6923 28.651 58.0945 28.4219C58.6313 28.1282 59.2392 27.9878 59.851 28.0163C60.2955 28.0174 60.7381 28.0729 61.169 28.1816C61.6078 28.2924 62.0208 28.4871 62.385 28.7547L62.3274 28.1309H63.0694V31.3205H62.5467C62.5188 30.6128 62.2598 29.9333 61.8091 29.3852C61.5812 29.1209 61.2952 28.9123 60.9734 28.7754C60.6515 28.6386 60.3024 28.5772 59.9529 28.596C59.7038 28.5816 59.4542 28.6171 59.2191 28.7004C58.984 28.7837 58.768 28.9131 58.5841 29.081C58.422 29.2377 58.2942 29.4262 58.2089 29.6344C58.1235 29.8427 58.0823 30.0663 58.0879 30.2911C58.0789 30.6533 58.1972 31.0072 58.4224 31.2918C58.647 31.5744 58.9246 31.811 59.2397 31.9884C59.5587 32.1721 60.0098 32.3991 60.5931 32.6695C61.1394 32.9117 61.6725 33.1825 62.1901 33.4807C62.5932 33.7248 62.9421 34.0481 63.2156 34.4307C63.5064 34.8546 63.6545 35.3593 63.6387 35.8723C63.6486 36.38 63.5093 36.8795 63.2378 37.3095C62.951 37.7405 62.5437 38.0784 62.066 38.2816C61.4857 38.5256 60.8597 38.6435 60.2298 38.6276C59.7647 38.6243 59.302 38.5591 58.8543 38.4337Z" fill="#E6E7E8"/>
<path d="M65.083 37.9113C65.3464 37.9274 65.6064 37.8449 65.8117 37.6799C65.9535 37.5428 66.0414 37.3599 66.0598 37.1641C66.0775 36.9657 66.0886 36.6218 66.0886 36.1281V29.8658C66.0853 29.517 66.1001 29.1682 66.1329 28.8209L65.083 28.8782V28.2412H72.0913L72.1622 30.7783H71.6904C71.6904 29.9848 71.5198 29.4447 71.1743 29.1538C70.7592 28.8434 70.2425 28.6987 69.7257 28.7482L68.472 28.7791C68.2054 28.7642 67.9407 28.832 67.7144 28.973C67.5565 29.0996 67.4522 29.2805 67.422 29.48C67.3763 29.8189 67.3571 30.1609 67.3645 30.5028V32.8173L70.1022 32.8327L70.0003 31.5851H70.6427V34.6314H70.162C70.1755 34.352 70.1311 34.0729 70.0313 33.8114C69.9943 33.7244 69.9396 33.646 69.8706 33.5811C69.8016 33.5162 69.7198 33.4663 69.6304 33.4345C69.387 33.3623 69.1333 33.3302 68.8795 33.3397L68.4365 33.3551L67.3733 33.397V36.7166C67.3785 37.094 67.3637 37.4715 67.329 37.8474L70.1111 37.8055C70.7918 37.7967 71.3086 37.6248 71.6616 37.2897C72.0204 36.9569 72.202 36.3793 72.202 35.5572H72.696L72.6096 38.3852H65.083V37.9113Z" fill="#E6E7E8"/>
<path d="M74.1447 37.9118C74.4081 37.9279 74.6681 37.8454 74.8734 37.6803C75.0151 37.5433 75.1031 37.3604 75.1215 37.1645C75.1392 36.9662 75.1503 36.6223 75.1503 36.1285V29.8662C75.147 29.5174 75.1618 29.1687 75.1946 28.8214L74.1447 28.8787V28.2417C75.1547 28.2211 75.9174 28.2116 76.4328 28.213C76.8979 28.213 77.2479 28.213 77.4805 28.2285C78.8493 28.2461 79.852 28.4753 80.4884 28.9162C80.7989 29.1277 81.0493 29.4153 81.2154 29.7512C81.3815 30.0872 81.4576 30.4601 81.4365 30.8339C81.4526 31.4833 81.242 32.1182 80.8406 32.6304C80.4316 33.1609 79.7221 33.5282 78.712 33.7325C78.8782 33.8598 79.0271 34.008 79.155 34.1734C79.2923 34.3482 79.4769 34.6186 79.7088 34.9845L80.6989 36.5275C80.9204 36.867 81.0909 37.1249 81.2305 37.3034C81.3696 37.483 81.5436 37.633 81.7421 37.7443C81.9683 37.8632 82.2219 37.9209 82.4775 37.9118V38.3901H80.6413C80.3957 38.1852 80.1729 37.9547 79.9768 37.7024C79.7974 37.4643 79.5847 37.1579 79.3433 36.781L78.3665 35.238L78.1782 34.9338C78.0209 34.6737 77.8858 34.4599 77.7684 34.2968C77.659 34.1363 77.532 33.9884 77.3896 33.8559C77.2542 33.8687 77.1181 33.8738 76.9821 33.8714C76.7207 33.8714 76.5258 33.8714 76.3995 33.8559V36.6686C76.4048 37.0512 76.39 37.4338 76.3552 37.8148L77.4052 37.7575V38.3945H74.127L74.1447 37.9118ZM80.0299 30.9816C80.0299 30.2468 79.8166 29.6965 79.3898 29.3306C78.963 28.9647 78.3074 28.781 77.4229 28.7795C77.1634 28.7549 76.904 28.8263 76.6941 28.9801C76.5524 29.1081 76.4639 29.2842 76.4461 29.4739C76.4261 29.6679 76.4173 30.0095 76.4173 30.5033V33.2873C76.7097 33.3071 76.9223 33.3159 77.0574 33.3159C79.0406 33.3159 80.0314 32.5378 80.0299 30.9816Z" fill="#E6E7E8"/>
<path d="M83.8043 30.8331C83.513 30.2043 83.3024 29.5415 83.1774 28.8603L82.3623 28.889V28.252H85.7402V28.7303L85.7269 28.7457C85.4755 28.7428 85.2291 28.8158 85.0203 28.9551C84.9447 29.0202 84.8853 29.1018 84.8469 29.1936C84.8084 29.2854 84.792 29.3849 84.7988 29.4841C84.814 29.77 84.8831 30.0504 85.0026 30.3107L85.3814 31.2387C85.4788 31.4783 85.6265 31.8456 85.8244 32.3409C86.0222 32.8361 86.2098 33.285 86.387 33.6877L86.7657 34.5694C87.1452 35.429 87.4125 36.0668 87.5676 36.4827H87.5964L88.1346 34.9397L88.3251 34.4173L89.6009 30.8331L89.9376 29.9051C90.0595 29.5404 90.2 29.1822 90.3585 28.8317L89.2377 28.889V28.252H92.1947V28.7303C91.8376 28.7244 91.4897 28.8429 91.2112 29.0653C90.9201 29.3726 90.708 29.7454 90.5933 30.152L87.5188 38.5459H87.1113L83.8043 30.8331Z" fill="#E6E7E8"/>
<path d="M92.7329 37.9113C92.9957 37.9278 93.2551 37.8451 93.4594 37.6799C93.6012 37.5428 93.6891 37.3599 93.7075 37.1641C93.7275 36.9657 93.7363 36.6218 93.7363 36.1281V29.8658C93.7363 29.458 93.7518 29.1119 93.7806 28.8209L92.7329 28.8782V28.2412H96.0111V28.7195C95.7491 28.7003 95.4893 28.7789 95.2824 28.94C95.1411 29.0772 95.0539 29.2601 95.0365 29.4558C95.0166 29.6541 95.0055 29.998 95.0055 30.4918V36.6527C95.0112 37.0352 94.9972 37.4178 94.9634 37.7989L96.0111 37.7416V38.3786H92.7329V37.9113Z" fill="#E6E7E8"/>
<path d="M99.7478 37.9406C99.0012 37.494 98.3921 36.852 97.9869 36.0846C97.5592 35.2828 97.3406 34.3869 97.3512 33.4792C97.3457 32.559 97.5422 31.6487 97.9271 30.812C98.3005 29.9926 98.8957 29.2928 99.646 28.7907C100.465 28.2566 101.429 27.9858 102.408 28.0148C103.455 28.0083 104.48 28.3156 105.35 28.8965L105.276 28.114H106.065V31.4777H105.54C105.49 30.6824 105.151 29.9324 104.585 29.3682C104.307 29.1117 103.98 28.9123 103.624 28.7815C103.268 28.6506 102.889 28.5908 102.51 28.6056C101.837 28.6008 101.178 28.8007 100.623 29.1787C100.031 29.5881 99.5649 30.1527 99.276 30.8098C98.9323 31.5801 98.7629 32.4161 98.7799 33.2587C98.7654 34.0829 98.9452 34.899 99.3048 35.6416C99.6199 36.3042 100.108 36.8706 100.718 37.2815C101.299 37.67 101.985 37.8744 102.685 37.8679C103.337 37.8661 103.979 37.7153 104.563 37.427C105.155 37.1469 105.666 36.7232 106.05 36.1948L106.428 36.499C105.946 37.214 105.276 37.7829 104.49 38.1434C103.803 38.4495 103.059 38.6102 102.306 38.6151C101.407 38.6312 100.521 38.3976 99.7478 37.9406Z" fill="#E6E7E8"/>
<path d="M107.666 37.9113C107.93 37.9274 108.19 37.8449 108.395 37.6799C108.537 37.5428 108.625 37.3599 108.643 37.1641C108.661 36.9657 108.672 36.6218 108.672 36.1281V29.8658C108.672 29.458 108.687 29.1119 108.716 28.8209L107.666 28.8782V28.2412H114.675L114.745 30.7783H114.265C114.265 29.9848 114.094 29.4447 113.749 29.1538C113.334 28.8434 112.817 28.6987 112.3 28.7482L111.046 28.7791C110.78 28.7642 110.515 28.832 110.289 28.973C110.131 29.0996 110.027 29.2805 109.996 29.48C109.951 29.8189 109.931 30.1609 109.939 30.5028V32.8173L112.679 32.8327L112.577 31.5851H113.217V34.6314H112.736C112.75 34.352 112.705 34.0729 112.606 33.8114C112.569 33.7244 112.514 33.646 112.445 33.5811C112.376 33.5162 112.294 33.4663 112.205 33.4345C111.961 33.3621 111.708 33.3301 111.454 33.3397L111.011 33.3551L109.948 33.397V36.7166C109.954 37.0941 109.939 37.4716 109.903 37.8474L112.688 37.8055C113.368 37.7967 113.885 37.6248 114.238 37.2897C114.591 36.9547 114.771 36.3771 114.779 35.5572H115.273L115.186 38.3852H107.666V37.9113Z" fill="#E6E7E8"/>
<path d="M118.762 38.4332C118.327 38.3211 117.914 38.1363 117.541 37.8865L117.614 38.5103H116.857L116.77 35.4243H117.337C117.386 36.2546 117.673 36.8946 118.197 37.3443C118.755 37.8056 119.465 38.0458 120.19 38.0188C120.73 38.0353 121.259 37.8638 121.685 37.5338C121.883 37.3753 122.04 37.1733 122.145 36.9437C122.25 36.7141 122.3 36.4633 122.29 36.2113C122.3 35.8273 122.179 35.4513 121.947 35.1444C121.714 34.8469 121.427 34.5963 121.101 34.406C120.659 34.1531 120.204 33.9228 119.738 33.716C119.089 33.4074 118.571 33.1363 118.188 32.9049C117.799 32.6689 117.464 32.3551 117.204 31.9835C116.921 31.5675 116.779 31.0726 116.797 30.5706C116.8 30.1689 116.892 29.7729 117.067 29.4111C117.272 28.9979 117.596 28.6549 117.997 28.4258C118.534 28.1321 119.142 27.9917 119.754 28.0202C120.202 28.0202 120.648 28.0758 121.083 28.1855C121.522 28.2968 121.936 28.4914 122.301 28.7587L122.241 28.1348H122.983V31.3244H122.461C122.433 30.6171 122.174 29.9379 121.725 29.3891C121.497 29.1247 121.21 28.9161 120.888 28.7793C120.566 28.6425 120.217 28.5811 119.867 28.5999C119.618 28.5855 119.368 28.621 119.133 28.7043C118.898 28.7876 118.682 28.917 118.498 29.0849C118.336 29.2417 118.208 29.4301 118.123 29.6383C118.037 29.8466 117.996 30.0702 118.002 30.295C117.994 30.6574 118.113 31.0113 118.338 31.2958C118.562 31.5788 118.839 31.8154 119.154 31.9923C119.473 32.176 119.924 32.403 120.509 32.6734C121.055 32.9151 121.587 33.1859 122.104 33.4846C122.508 33.7287 122.857 34.0519 123.132 34.4346C123.422 34.8588 123.569 35.3635 123.553 35.8762C123.563 36.3839 123.423 36.8834 123.152 37.3134C122.865 37.7444 122.458 38.0823 121.98 38.2855C121.4 38.5295 120.774 38.6474 120.144 38.6315C119.676 38.6278 119.211 38.561 118.762 38.4332Z" fill="#E6E7E8"/>
<path d="M125.515 40.6943C125.713 40.4187 125.87 40.1157 125.98 39.795C126.123 39.4294 126.198 39.0411 126.202 38.6488C126.203 38.5619 126.199 38.475 126.188 38.3887C126.074 38.4438 125.95 38.4738 125.823 38.4769C125.733 38.4793 125.643 38.4624 125.56 38.4274C125.478 38.3924 125.403 38.3401 125.342 38.2741C125.214 38.1356 125.146 37.9528 125.152 37.7649C125.146 37.6518 125.164 37.5387 125.204 37.4328C125.244 37.3269 125.307 37.2306 125.387 37.1499C125.461 37.0769 125.55 37.0197 125.647 36.9818C125.745 36.9439 125.849 36.9261 125.954 36.9295C126.101 36.9234 126.247 36.9539 126.379 37.0181C126.511 37.0824 126.626 37.1784 126.711 37.2976C126.906 37.5754 127.003 37.9093 126.988 38.2476C126.968 38.7403 126.862 39.2258 126.676 39.6826C126.514 40.1651 126.253 40.6093 125.911 40.9875L125.515 40.6943Z" fill="#E6E7E8"/>
<path d="M132.506 37.9113C132.769 37.9274 133.029 37.8449 133.234 37.6799C133.376 37.5433 133.464 37.36 133.48 37.1641C133.5 36.9657 133.511 36.6218 133.511 36.1281V29.8658C133.511 29.458 133.525 29.1119 133.553 28.8209L132.506 28.8782V28.2412H135.784V28.7195C135.522 28.7001 135.262 28.7787 135.055 28.94C134.915 29.0815 134.831 29.2685 134.818 29.4668C134.798 29.6652 134.789 30.009 134.789 30.5028V36.721C134.794 37.0984 134.78 37.4759 134.745 37.8518L137.469 37.8099C137.732 37.8245 137.995 37.779 138.238 37.677C138.481 37.575 138.696 37.4192 138.869 37.2214C139.179 36.8422 139.334 36.2295 139.334 35.3874H139.831L139.742 38.3896H132.506V37.9113Z" fill="#E6E7E8"/>
<path d="M140.925 37.9113C141.188 37.9281 141.448 37.8455 141.653 37.6799C141.795 37.5428 141.883 37.3599 141.901 37.1641C141.921 36.9657 141.93 36.6218 141.93 36.1281V29.8658C141.93 29.458 141.946 29.1119 141.974 28.8209L140.925 28.8782V28.2412H144.203V28.7195C143.941 28.7 143.682 28.7786 143.476 28.94C143.334 29.0803 143.248 29.2677 143.235 29.4668C143.215 29.6652 143.206 30.009 143.206 30.5028V36.721C143.211 37.0984 143.196 37.4759 143.162 37.8518L145.886 37.8099C146.506 37.8099 146.974 37.6049 147.284 37.2214C147.594 36.8378 147.749 36.2295 147.749 35.3874H148.245L148.159 38.3896H140.925V37.9113Z" fill="#E6E7E8"/>
<path d="M151.32 37.9406C150.569 37.4948 149.957 36.8529 149.548 36.0846C149.125 35.2814 148.91 34.3859 148.923 33.4792C148.917 32.559 149.114 31.6487 149.499 30.812C149.872 29.9926 150.467 29.2928 151.218 28.7907C152.037 28.2566 153.001 27.9858 153.98 28.0148C155.027 28.0083 156.052 28.3156 156.921 28.8965L156.848 28.114H157.632V31.4777H157.11C157.06 30.6824 156.72 29.9324 156.155 29.3682C155.876 29.1117 155.55 28.9123 155.193 28.7815C154.837 28.6506 154.459 28.5908 154.079 28.6056C153.406 28.6005 152.748 28.8005 152.192 29.1787C151.6 29.5886 151.134 30.153 150.843 30.8098C150.501 31.5804 150.333 32.4164 150.352 33.2587C150.337 34.0829 150.517 34.899 150.877 35.6416C151.191 36.3046 151.679 36.8712 152.29 37.2815C152.871 37.67 153.557 37.8744 154.257 37.8679C154.908 37.8661 155.551 37.7153 156.135 37.427C156.726 37.1463 157.237 36.7227 157.621 36.1948L158 36.499C157.518 37.214 156.847 37.7829 156.062 38.1434C155.374 38.4495 154.629 38.6101 153.876 38.6151C152.977 38.6309 152.092 38.3973 151.32 37.9406Z" fill="#E6E7E8"/>
<path d="M56.7059 44.1355C56.7939 44.1404 56.8806 44.1129 56.9495 44.0583C56.9983 44.0108 57.0281 43.9474 57.0337 43.8798C57.0337 43.8115 57.0337 43.688 57.0337 43.5139V41.4749C57.0312 41.3469 57.0364 41.2188 57.0492 41.0914L56.697 41.1112V40.8908C57.1732 40.8908 57.5387 40.8908 57.8045 40.8908C58.1131 40.8716 58.4207 40.9413 58.6905 41.0914C58.7919 41.1562 58.8741 41.2468 58.9286 41.3537C58.9831 41.4606 59.0079 41.5801 59.0006 41.6998C58.9985 41.8814 58.9245 42.0548 58.7946 42.1825C58.6327 42.3417 58.4225 42.4433 58.1966 42.4713C58.4839 42.4522 58.7686 42.5367 58.9984 42.7093C59.0902 42.7854 59.1633 42.8813 59.2121 42.9898C59.2609 43.0983 59.284 43.2165 59.2797 43.3353C59.2835 43.5154 59.2317 43.6924 59.1313 43.8423C59.0281 43.9882 58.8863 44.1026 58.7215 44.1729C58.5335 44.2505 58.3314 44.2887 58.1279 44.2854H56.7037L56.7059 44.1355ZM58.582 43.9151C58.6577 43.8463 58.7169 43.7614 58.7552 43.6668C58.7936 43.5722 58.8101 43.4702 58.8035 43.3684C58.8157 43.2602 58.802 43.1507 58.7635 43.0488C58.725 42.9469 58.6628 42.8555 58.582 42.7821C58.4048 42.6583 58.1914 42.5963 57.9751 42.6057C57.7957 42.6057 57.6273 42.6057 57.4723 42.6212V43.7233C57.4723 43.8908 57.4723 44.0164 57.4568 44.1002C57.5188 44.1002 57.6362 44.1112 57.809 44.1112H57.9751C58.1939 44.1217 58.4093 44.0537 58.582 43.9195V43.9151ZM57.8222 42.4228C57.9265 42.4288 58.0308 42.4122 58.1279 42.3742C58.2251 42.3361 58.3127 42.2775 58.3849 42.2023C58.5027 42.0599 58.5649 41.8798 58.5598 41.6954C58.5698 41.5994 58.5546 41.5024 58.5158 41.414C58.477 41.3255 58.4158 41.2486 58.3383 41.1906C58.1854 41.0928 58.0062 41.0436 57.8245 41.0495C57.7438 41.0451 57.6632 41.0603 57.5897 41.0936C57.5638 41.1085 57.5412 41.1286 57.5233 41.1524C57.5054 41.1763 57.4926 41.2035 57.4856 41.2325C57.465 41.3265 57.456 41.4228 57.459 41.519V42.4228H57.8222Z" fill="#E6E7E8"/>
<path d="M60.4781 44.1904C60.2723 44.0622 60.1204 43.864 60.0506 43.6327C59.9538 43.3105 59.9096 42.9748 59.9199 42.6386V41.6533C59.9199 41.4483 59.9199 41.2587 59.9398 41.0912L59.5898 41.1066V40.8972H60.6818V41.0582C60.5379 41.0582 60.4471 41.0956 60.4072 41.1684C60.3668 41.2537 60.3471 41.3474 60.3496 41.4417V42.6651C60.3455 42.9104 60.3707 43.1553 60.4249 43.3947C60.47 43.5895 60.5744 43.7658 60.7239 43.8994C60.9041 44.041 61.1306 44.1109 61.3596 44.0956C61.5043 44.1057 61.6491 44.0792 61.7808 44.0187C61.9124 43.9582 62.0266 43.8656 62.1127 43.7496C62.2918 43.4671 62.3813 43.1376 62.3697 42.8039L62.383 41.4417C62.3817 41.3247 62.3869 41.2077 62.3985 41.0912L62.0529 41.1111V40.8906H62.9589V41.0515C62.8693 41.0448 62.7806 41.0724 62.7108 41.1287C62.6632 41.1743 62.6333 41.2352 62.6266 41.3006C62.6266 41.3667 62.6266 41.4836 62.6266 41.6467V42.7731C62.6408 43.1787 62.5311 43.5791 62.3121 43.9215C62.1964 44.0728 62.0441 44.1925 61.8695 44.2695C61.6948 44.3466 61.5035 44.3785 61.3131 44.3623C61.0242 44.3827 60.7352 44.3232 60.4781 44.1904Z" fill="#E6E7E8"/>
<path d="M63.3726 44.1353C63.4607 44.1406 63.5475 44.1131 63.6163 44.0581C63.6641 44.0118 63.6939 43.9501 63.7004 43.884C63.7004 43.8179 63.7004 43.7033 63.7004 43.5379V41.4417C63.6992 41.3247 63.7043 41.2077 63.716 41.0912L63.3638 41.1111V40.8906H64.4713V41.0515C64.3831 41.0451 64.2958 41.0727 64.2276 41.1287C64.18 41.1743 64.1502 41.2352 64.1434 41.3006C64.1434 41.3667 64.1434 41.4836 64.1434 41.6467V43.7099C64.1434 43.8818 64.1434 44.0097 64.1279 44.0934L64.4801 44.0758V44.2962H63.3726V44.1353Z" fill="#E6E7E8"/>
<path d="M65.0076 44.1353C65.0955 44.1402 65.1823 44.1128 65.2512 44.0581C65.2983 44.0116 65.3274 43.9499 65.3332 43.884C65.3332 43.8179 65.3443 43.7033 65.3443 43.5379V41.4417C65.3443 41.305 65.3487 41.1882 65.3575 41.0912L65.0076 41.1111V40.8906H66.104V41.0515C66.0159 41.0455 65.9288 41.0731 65.8603 41.1287C65.8132 41.1744 65.7841 41.2354 65.7784 41.3006C65.7784 41.3667 65.7673 41.4836 65.7673 41.6467V43.7297C65.7673 43.8972 65.7673 44.0251 65.754 44.1088L66.6666 44.0934C66.7544 44.0982 66.8421 44.0831 66.9231 44.0491C67.0041 44.0151 67.0762 43.9631 67.134 43.8972C67.2526 43.7158 67.3072 43.5002 67.289 43.2845H67.4551L67.4264 44.2874H65.0076V44.1353Z" fill="#E6E7E8"/>
<path d="M67.8275 44.1356C67.9154 44.1405 68.0022 44.113 68.0711 44.0584C68.1182 44.0118 68.1473 43.9501 68.1531 43.8843C68.1531 43.8182 68.1531 43.7035 68.1531 43.5382V41.442C68.1531 41.3053 68.1531 41.1885 68.1686 41.0915L67.8186 41.1113V40.8909H68.9682C69.488 40.859 70.0025 41.0104 70.4212 41.3185C70.6048 41.4755 70.749 41.6731 70.842 41.8955C70.9351 42.1179 70.9746 42.3589 70.9573 42.5992C70.957 42.8948 70.8808 43.1854 70.7358 43.4434C70.592 43.7022 70.3778 43.9154 70.1178 44.0584C69.8063 44.2163 69.4593 44.2922 69.1099 44.2788H67.8275V44.1356ZM69.821 43.9151C70.0337 43.7821 70.2042 43.5918 70.3127 43.3663C70.433 43.1238 70.4937 42.8564 70.4899 42.586C70.5116 42.1817 70.3714 41.7854 70.1001 41.4838C69.9417 41.3409 69.7557 41.2317 69.5535 41.1627C69.3513 41.0937 69.137 41.0665 68.9239 41.0827C68.837 41.0752 68.7504 41.0995 68.6802 41.151C68.6322 41.1945 68.6023 41.2542 68.5961 41.3185C68.5961 41.3847 68.5961 41.5015 68.5961 41.6646V43.7344C68.5984 43.8602 68.5932 43.9861 68.5806 44.1113C68.6958 44.1113 68.8685 44.1223 69.1033 44.1223C69.358 44.1217 69.6071 44.0482 69.821 43.9107V43.9151Z" fill="#E6E7E8"/>
<path d="M71.4115 44.1353C71.4994 44.1402 71.5862 44.1128 71.6551 44.0581C71.7031 44.0121 71.7323 43.9501 71.7371 43.884C71.7371 43.8179 71.7371 43.7033 71.7371 43.5379V41.4417C71.7371 41.305 71.7415 41.1882 71.7504 41.0912L71.4004 41.1111V40.8906H72.5079V41.0515C72.4198 41.0455 72.3327 41.0731 72.2642 41.1287C72.2171 41.1744 72.188 41.2354 72.1823 41.3006C72.1823 41.3667 72.1712 41.4836 72.1712 41.6467V43.7099C72.1712 43.8818 72.1668 44.0097 72.1579 44.0934L72.5079 44.0758V44.2962H71.4004L71.4115 44.1353Z" fill="#E6E7E8"/>
<path d="M73.5952 41.5428L73.6108 43.6192C73.6108 43.8397 73.6108 43.9962 73.6108 44.0998L73.9629 44.0821V44.3026H73.0769V44.1439C73.1263 44.1505 73.1766 44.1435 73.2223 44.1237C73.268 44.1039 73.3074 44.072 73.3361 44.0314C73.3798 43.9479 73.4012 43.8545 73.3981 43.7603V41.0998L73.0725 41.1196V40.8992H73.6528L75.7305 43.6655V41.4436C75.7305 41.307 75.7305 41.1901 75.746 41.0932L75.3938 41.113V40.8926H76.2931V41.0535C76.2154 41.0496 76.1383 41.0688 76.0716 41.1086C76.0244 41.1414 75.9918 41.1912 75.9808 41.2475C75.9657 41.3244 75.959 41.4027 75.9609 41.4811V41.6486V44.3687H75.7261L73.5952 41.5428Z" fill="#E6E7E8"/>
<path d="M77.4938 44.167C77.245 44.0316 77.0411 43.8271 76.9068 43.5785C76.7622 43.2979 76.6906 42.9856 76.6986 42.6703C76.697 42.3602 76.7628 42.0535 76.8913 41.771C77.017 41.4939 77.2171 41.2567 77.4694 41.0855C77.7431 40.904 78.0666 40.8116 78.3953 40.821C78.5755 40.8219 78.7549 40.8456 78.9291 40.8915C79.0967 40.9331 79.2572 40.9992 79.4053 41.0877L79.3854 40.854H79.6645V41.9562H79.4895C79.4849 41.8239 79.4537 41.694 79.3978 41.574C79.3419 41.4539 79.2624 41.3463 79.1639 41.2574C78.9624 41.0867 78.7041 40.9971 78.4396 41.0061C78.2135 41.0048 77.9927 41.0742 77.8083 41.2045C77.6114 41.3458 77.4549 41.5357 77.3543 41.7556C77.2395 42.0043 77.182 42.2754 77.1859 42.5491C77.1811 42.8297 77.2378 43.108 77.352 43.3647C77.4512 43.5917 77.6123 43.7864 77.8172 43.9268C78.016 44.064 78.2531 44.1357 78.495 44.1318C78.6404 44.1313 78.7851 44.1106 78.9247 44.07C79.0681 44.032 79.2042 43.971 79.3278 43.8893V42.8268L78.9867 42.8445V42.624H80.0942V42.785C80.0322 42.7762 79.9691 42.7889 79.9154 42.821C79.8618 42.8532 79.8209 42.9027 79.7996 42.9613C79.76 43.0913 79.7406 43.2266 79.742 43.3625V44.1053H79.6113C79.4295 44.1155 79.2509 44.158 79.0842 44.231C78.9721 44.2747 78.8555 44.3057 78.7364 44.3235C78.6158 44.3452 78.4935 44.3569 78.3709 44.3588C78.0669 44.3709 77.7648 44.3048 77.4938 44.167Z" fill="#E6E7E8"/>
<path d="M82.4774 44.135C82.5286 44.1398 82.5803 44.1316 82.6275 44.1112C82.6748 44.0907 82.7161 44.0588 82.7476 44.0182C82.7966 43.9152 82.8179 43.8013 82.8096 43.6876V43.5377V41.0777H82.3068C82.2216 41.0679 82.1354 41.0814 82.0573 41.1168C81.9793 41.1521 81.9124 41.208 81.8638 41.2783C81.7635 41.4758 81.719 41.6968 81.7353 41.9176H81.5537L81.5847 40.8926H84.4266L84.4576 41.9176H84.2715C84.2728 41.7524 84.252 41.5879 84.2095 41.4282C84.1805 41.3187 84.1139 41.2228 84.0212 41.1571C83.905 41.0905 83.7719 41.0591 83.638 41.0667H83.2216V43.7118C83.2216 43.8838 83.2172 44.0116 83.2083 44.0954L83.6114 44.0777V44.2982H82.4774V44.135Z" fill="#E6E7E8"/>
<path d="M84.852 44.1362C84.9401 44.1416 85.0269 44.1141 85.0957 44.0591C85.1435 44.0127 85.1733 43.951 85.1798 43.8849C85.1798 43.8188 85.1798 43.7042 85.1798 43.5389V41.4426C85.1786 41.3256 85.1837 41.2086 85.1953 41.0921L84.8432 41.112V40.8915C85.1821 40.8915 85.4368 40.8915 85.6096 40.8915C85.7823 40.8915 85.882 40.8915 85.9617 40.8915C86.3111 40.8691 86.6598 40.9455 86.9673 41.112C87.0709 41.1826 87.1546 41.2784 87.2104 41.3903C87.2663 41.5022 87.2924 41.6264 87.2863 41.7512C87.2925 41.9688 87.222 42.1817 87.087 42.353C86.9031 42.558 86.6502 42.689 86.3759 42.7211C86.4326 42.765 86.4832 42.8161 86.5266 42.8732C86.5731 42.9305 86.6329 43.0209 86.7126 43.1443L87.0427 43.6645C87.1158 43.7769 87.1733 43.8629 87.2221 43.9224C87.2687 43.9817 87.3266 44.0311 87.3926 44.0679C87.4682 44.108 87.5529 44.1277 87.6385 44.1252V44.2839H87.0249C86.9428 44.2191 86.8685 44.1452 86.8034 44.0635C86.7436 43.9841 86.6727 43.8805 86.5819 43.7549L86.2541 43.2347L86.1899 43.1333C86.1389 43.0451 86.0924 42.9746 86.0548 42.9128C86.0173 42.8605 85.9751 42.8118 85.9285 42.7674C85.8828 42.7702 85.8369 42.7702 85.7912 42.7674C85.7026 42.7674 85.6384 42.7674 85.5963 42.7674V43.7086C85.5986 43.8366 85.5935 43.9647 85.5808 44.0921L85.9329 44.0745V44.2949H84.8254L84.852 44.1362ZM86.8234 41.8151C86.8303 41.7123 86.814 41.6092 86.7757 41.5135C86.7374 41.4177 86.678 41.3318 86.6019 41.2619C86.4091 41.1245 86.1737 41.0597 85.9374 41.0789C85.8508 41.0706 85.7641 41.0942 85.6937 41.145C85.6462 41.188 85.6163 41.2468 85.6096 41.3104C85.6096 41.3765 85.6096 41.4911 85.6096 41.6542V42.5866C85.707 42.5866 85.7779 42.5976 85.8311 42.5976C86.4911 42.5976 86.8234 42.3353 86.8234 41.8151Z" fill="#E6E7E8"/>
<path d="M88.6595 44.1904C88.4536 44.0619 88.3011 43.8639 88.2298 43.6327C88.1338 43.3103 88.0905 42.9747 88.1013 42.6386V41.6533C88.1013 41.4483 88.1013 41.2587 88.119 41.0912L87.769 41.1066V40.8972H88.861V41.0582C88.7193 41.0582 88.6395 41.0956 88.5886 41.1684C88.5464 41.2532 88.5258 41.3471 88.5288 41.4417V42.6651C88.5253 42.9105 88.5513 43.1554 88.6063 43.3947C88.6497 43.5897 88.7535 43.7662 88.9031 43.8994C89.0835 44.0406 89.3099 44.1105 89.5388 44.0956C89.6835 44.1057 89.8283 44.0792 89.96 44.0187C90.0916 43.9582 90.2058 43.8656 90.2919 43.7496C90.4719 43.4675 90.5615 43.1378 90.5489 42.8039L90.5644 41.4417C90.5644 41.305 90.5688 41.1882 90.5777 41.0912L90.2321 41.1111V40.8906H91.1403V41.0515C91.05 41.0449 90.9607 41.0725 90.89 41.1287C90.8428 41.1744 90.8138 41.2354 90.808 41.3006C90.808 41.3667 90.808 41.4836 90.808 41.6467V42.7731C90.8222 43.1787 90.7126 43.5791 90.4935 43.9215C90.3784 44.0729 90.2266 44.1927 90.0523 44.2698C89.8779 44.347 89.6868 44.3788 89.4967 44.3623C89.207 44.3836 88.9171 44.3241 88.6595 44.1904Z" fill="#E6E7E8"/>
<path d="M92.2346 44.3092C92.089 44.2715 91.9511 44.2088 91.827 44.1241L91.8514 44.3335H91.5967L91.5679 43.2997H91.7584C91.7593 43.4209 91.7854 43.5406 91.8349 43.6514C91.8845 43.7621 91.9564 43.8615 92.0463 43.9433C92.2334 44.0949 92.4697 44.1733 92.7108 44.1637C92.8911 44.1694 93.0675 44.1117 93.2092 44.0006C93.2755 43.9482 93.3285 43.8809 93.3639 43.8044C93.3993 43.7278 93.4161 43.644 93.413 43.5598C93.4166 43.4312 93.376 43.3052 93.2978 43.2027C93.2201 43.1031 93.1238 43.0192 93.0143 42.9558C92.8663 42.8708 92.714 42.7936 92.558 42.7244C92.3409 42.6215 92.1681 42.5311 92.0397 42.4532C91.9095 42.3741 91.7971 42.269 91.7096 42.1446C91.6158 42.0047 91.5685 41.8389 91.5745 41.6707C91.5755 41.5365 91.6057 41.4042 91.6631 41.2828C91.7333 41.1451 91.8417 41.0303 91.9754 40.9521C92.1558 40.8545 92.3596 40.8079 92.5646 40.8177C92.714 40.8174 92.8629 40.8359 93.0076 40.8728C93.1547 40.9098 93.2931 40.9749 93.4152 41.0646L93.3952 40.8551H93.6433V41.9242H93.4683C93.4599 41.6872 93.3736 41.4595 93.2225 41.2762C93.1459 41.1877 93.05 41.1179 92.9421 41.0721C92.8342 41.0262 92.7172 41.0055 92.6001 41.0116C92.5165 41.0065 92.4328 41.0183 92.354 41.0464C92.2752 41.0744 92.2029 41.1181 92.1416 41.1748C92.0873 41.2269 92.0446 41.2897 92.016 41.3591C91.9874 41.4285 91.9736 41.5031 91.9754 41.5781C91.9727 41.7002 92.0126 41.8194 92.0884 41.9154C92.1652 42.0045 92.2575 42.0792 92.3608 42.1358C92.4694 42.1975 92.62 42.2725 92.8038 42.3562C92.987 42.436 93.1653 42.5265 93.3377 42.6274C93.4728 42.7086 93.5897 42.8166 93.681 42.9448C93.7787 43.0866 93.8284 43.2557 93.8227 43.4275C93.8258 43.5971 93.7797 43.7639 93.6898 43.9081C93.5926 44.0522 93.4558 44.1655 93.2956 44.2343C93.1017 44.3162 92.8926 44.3561 92.682 44.3511C92.5317 44.3563 92.3813 44.3423 92.2346 44.3092Z" fill="#E6E7E8"/>
<path d="M95.0652 44.135C95.1165 44.1398 95.1681 44.1316 95.2154 44.1112C95.2626 44.0907 95.3039 44.0588 95.3354 44.0182C95.3844 43.9152 95.4057 43.8013 95.3974 43.6876V43.5377V41.0777H94.8946C94.8112 41.07 94.7272 41.0845 94.6513 41.1198C94.5754 41.155 94.5103 41.2097 94.4627 41.2783C94.3623 41.4758 94.3179 41.6968 94.3342 41.9176H94.1526L94.1836 40.8926H97.0299L97.0609 41.9176H96.8748C96.8762 41.7524 96.8553 41.5879 96.8128 41.4282C96.7838 41.3187 96.7172 41.2228 96.6245 41.1571C96.5084 41.0905 96.3752 41.0591 96.2413 41.0667H95.8338V43.7118C95.8338 43.8838 95.8294 44.0116 95.8205 44.0954L96.2236 44.0777V44.2982H95.0785L95.0652 44.135Z" fill="#E6E7E8"/>
<path d="M97.2759 45.0666C97.3414 44.9744 97.3936 44.8735 97.431 44.7668C97.4781 44.6443 97.5028 44.5145 97.504 44.3833C97.5057 44.3539 97.5057 44.3245 97.504 44.2951C97.4661 44.3135 97.4245 44.3233 97.3822 44.3238C97.3522 44.3243 97.3224 44.3186 97.2946 44.3073C97.2668 44.2959 97.2416 44.279 97.2205 44.2577C97.1785 44.2113 97.1562 44.1504 97.1585 44.0879C97.1561 44.0499 97.1617 44.0118 97.1751 43.9761C97.1884 43.9404 97.2092 43.9079 97.236 43.8807C97.261 43.856 97.2908 43.8366 97.3235 43.8237C97.3563 43.8109 97.3913 43.8047 97.4265 43.8058C97.4755 43.8044 97.5242 43.8149 97.5682 43.8364C97.6122 43.8579 97.6502 43.8898 97.679 43.9292C97.7439 44.0222 97.7766 44.1336 97.7721 44.2466C97.7652 44.4116 97.73 44.5741 97.668 44.7272C97.6144 44.8905 97.5269 45.0407 97.411 45.168L97.2759 45.0666Z" fill="#E6E7E8"/>
<path d="M99.6146 44.1353C99.7026 44.1406 99.7895 44.1131 99.8582 44.0581C99.906 44.0118 99.9358 43.9501 99.9424 43.884C99.9424 43.8179 99.9424 43.7033 99.9424 43.5379V41.4417C99.9411 41.3247 99.9463 41.2077 99.9579 41.0912L99.6057 41.1111V40.8906H101.951L101.976 41.7393H101.816C101.837 41.6474 101.835 41.5517 101.809 41.461C101.784 41.3703 101.736 41.2874 101.67 41.2199C101.604 41.1523 101.522 41.1024 101.431 41.0745C101.341 41.0467 101.245 41.0418 101.152 41.0604L100.731 41.0714C100.642 41.066 100.554 41.0884 100.478 41.1353C100.425 41.1768 100.39 41.2378 100.381 41.305C100.365 41.4182 100.358 41.5324 100.361 41.6467V42.4248H101.278L101.243 42.0082H101.464V43.0266H101.305C101.309 42.9334 101.294 42.8403 101.26 42.7532C101.248 42.7238 101.229 42.6972 101.206 42.6752C101.183 42.6532 101.155 42.6363 101.125 42.6254C101.044 42.6023 100.959 42.5919 100.875 42.5945H100.724L100.368 42.6099V43.7121C100.37 43.8386 100.365 43.9652 100.352 44.0912L101.285 44.0758C101.474 44.0865 101.66 44.025 101.805 43.9038C101.874 43.8247 101.925 43.7324 101.956 43.6327C101.988 43.533 101.998 43.428 101.987 43.3241H102.153L102.124 44.2698H99.6146V44.1353Z" fill="#E6E7E8"/>
<path d="M103.201 41.5428L103.214 43.6192C103.214 43.8397 103.214 43.9962 103.214 44.0998L103.564 44.0821V44.3026H102.678V44.1439C102.727 44.1508 102.778 44.1439 102.824 44.1241C102.869 44.1042 102.909 44.0722 102.937 44.0314C102.982 43.9481 103.004 43.8547 103.001 43.7603V41.0998L102.674 41.1196V40.8992H103.254L105.332 43.6655V41.4436C105.332 41.307 105.336 41.1901 105.345 41.0932L104.995 41.113V40.8926H105.881V41.0535C105.803 41.0496 105.726 41.0688 105.659 41.1086C105.612 41.1414 105.58 41.1912 105.569 41.2475C105.554 41.3245 105.548 41.4028 105.551 41.4811V41.6486V44.3687H105.316L103.201 41.5428Z" fill="#E6E7E8"/>
<path d="M107.046 44.3092C106.901 44.2715 106.763 44.2088 106.639 44.1241L106.663 44.3335H106.41L106.379 43.2997H106.57C106.571 43.4209 106.597 43.5406 106.646 43.6514C106.696 43.7621 106.768 43.8615 106.858 43.9433C107.045 44.0949 107.281 44.1733 107.522 44.1637C107.703 44.169 107.88 44.1113 108.023 44.0006C108.089 43.9477 108.141 43.8804 108.176 43.8038C108.211 43.7273 108.228 43.6438 108.224 43.5598C108.228 43.4312 108.187 43.3052 108.109 43.2027C108.032 43.1025 107.936 43.0186 107.826 42.9558C107.715 42.8897 107.562 42.8125 107.383 42.7244C107.203 42.6362 106.991 42.5304 106.862 42.4532C106.732 42.3737 106.62 42.2687 106.532 42.1446C106.438 42.0047 106.391 41.8389 106.397 41.6707C106.398 41.5363 106.429 41.4037 106.488 41.2828C106.556 41.1447 106.664 41.0297 106.798 40.9521C106.978 40.8545 107.182 40.8079 107.387 40.8177C107.537 40.8174 107.685 40.8359 107.83 40.8728C107.977 40.9098 108.116 40.9749 108.238 41.0646L108.218 40.8551H108.459V41.9242H108.284C108.276 41.6872 108.19 41.4595 108.038 41.2762C107.962 41.1876 107.866 41.1177 107.758 41.0718C107.65 41.026 107.533 41.0054 107.416 41.0116C107.332 41.0065 107.249 41.0183 107.17 41.0464C107.091 41.0744 107.019 41.1181 106.958 41.1748C106.903 41.2269 106.861 41.2897 106.832 41.3591C106.803 41.4285 106.79 41.5031 106.791 41.5781C106.789 41.7002 106.829 41.8194 106.904 41.9154C106.981 42.0045 107.073 42.0792 107.177 42.1358C107.285 42.1975 107.436 42.2725 107.62 42.3562C107.803 42.436 107.981 42.5265 108.154 42.6274C108.289 42.7086 108.406 42.8166 108.497 42.9448C108.595 43.0866 108.644 43.2557 108.639 43.4275C108.642 43.5971 108.596 43.7639 108.506 43.9081C108.409 44.0522 108.272 44.1655 108.112 44.2343C107.918 44.3162 107.709 44.3561 107.498 44.3511C107.346 44.3567 107.194 44.3426 107.046 44.3092Z" fill="#E6E7E8"/>
<path d="M109.903 44.1904C109.698 44.0619 109.545 43.8639 109.474 43.6327C109.379 43.3101 109.335 42.9746 109.345 42.6386V41.6533C109.345 41.4483 109.345 41.2587 109.365 41.0912L109.013 41.1066V40.8972H110.107V41.0582C109.963 41.0582 109.872 41.0956 109.832 41.1684C109.792 41.2537 109.772 41.3474 109.775 41.4417V42.6651C109.771 42.9104 109.796 43.1553 109.85 43.3947C109.895 43.5893 109.998 43.7656 110.147 43.8994C110.328 44.0408 110.555 44.1106 110.785 44.0956C110.93 44.1053 111.074 44.0786 111.206 44.0182C111.337 43.9577 111.452 43.8653 111.538 43.7496C111.716 43.4669 111.805 43.1374 111.793 42.8039L111.808 41.4417C111.807 41.3247 111.812 41.2077 111.824 41.0912L111.476 41.1111V40.8906H112.384V41.0515C112.295 41.0448 112.206 41.0724 112.136 41.1287C112.088 41.1743 112.059 41.2352 112.052 41.3006C112.052 41.3667 112.052 41.4836 112.052 41.6467V42.7731C112.068 43.1789 111.958 43.5797 111.737 43.9215C111.622 44.0729 111.47 44.1927 111.296 44.2698C111.122 44.347 110.931 44.3788 110.741 44.3623C110.451 44.3836 110.161 44.3241 109.903 44.1904Z" fill="#E6E7E8"/>
<path d="M112.799 44.1362C112.887 44.1412 112.973 44.1137 113.042 44.0591C113.09 44.0127 113.12 43.951 113.126 43.8849C113.126 43.8188 113.126 43.7042 113.126 43.5389V41.4426C113.126 41.306 113.131 41.1891 113.14 41.0922L112.79 41.112V40.8916C113.129 40.8916 113.383 40.8916 113.556 40.8916C113.729 40.8916 113.829 40.8916 113.906 40.8916C114.256 40.869 114.606 40.9454 114.914 41.112C115.018 41.1826 115.101 41.2784 115.157 41.3903C115.213 41.5022 115.239 41.6264 115.233 41.7512C115.239 41.9688 115.169 42.1817 115.034 42.353C114.854 42.5619 114.603 42.6982 114.329 42.7365C114.387 42.7804 114.438 42.8315 114.482 42.8886C114.526 42.9459 114.588 43.0363 114.666 43.1597L114.998 43.68C115.069 43.7924 115.129 43.8783 115.175 43.9379C115.222 43.9966 115.28 44.046 115.346 44.0833C115.422 44.1231 115.508 44.1428 115.594 44.1406V44.2993H114.978C114.897 44.2341 114.822 44.1602 114.757 44.0789C114.697 43.9996 114.626 43.896 114.535 43.7703L114.218 43.2369L114.154 43.1355C114.112 43.0597 114.067 42.9861 114.017 42.9151C113.981 42.8617 113.938 42.8129 113.891 42.7696C113.846 42.7724 113.801 42.7724 113.756 42.7696C113.667 42.7696 113.603 42.7696 113.558 42.7696V43.7108C113.558 43.8827 113.554 44.0106 113.545 44.0944L113.895 44.0767V44.2971H112.799V44.1362ZM114.77 41.8151C114.776 41.7124 114.76 41.6095 114.721 41.5139C114.683 41.4182 114.624 41.3322 114.549 41.2619C114.356 41.1247 114.12 41.0599 113.884 41.0789C113.797 41.0711 113.711 41.0945 113.64 41.1451C113.594 41.1882 113.564 41.2471 113.558 41.3104C113.558 41.3765 113.547 41.4911 113.547 41.6542V42.5866C113.647 42.5866 113.718 42.5977 113.769 42.5977C114.44 42.5977 114.77 42.3354 114.77 41.8151Z" fill="#E6E7E8"/>
<path d="M115.862 44.1353C115.95 44.1402 116.037 44.1128 116.106 44.0581C116.153 44.0116 116.182 43.9499 116.188 43.884C116.188 43.8179 116.199 43.7033 116.199 43.5379V41.4417C116.199 41.305 116.203 41.1882 116.212 41.0912L115.862 41.1111V40.8906H116.97V41.0515C116.881 41.0455 116.794 41.0731 116.726 41.1287C116.679 41.1744 116.65 41.2354 116.644 41.3006C116.644 41.3667 116.644 41.4836 116.644 41.6467V43.7099C116.644 43.8818 116.64 44.0097 116.631 44.0934L116.981 44.0758V44.2962H115.873L115.862 44.1353Z" fill="#E6E7E8"/>
<path d="M118.046 41.5428L118.061 43.6192C118.061 43.8397 118.061 43.9962 118.05 44.0998L118.402 44.0821V44.3026H117.516V44.1439C117.565 44.1509 117.616 44.144 117.661 44.1242C117.706 44.1043 117.745 44.0722 117.773 44.0314C117.819 43.9485 117.841 43.8548 117.838 43.7603V41.0998L117.512 41.1196V40.8992H118.092L120.17 43.6655V41.4436C120.169 41.3266 120.174 41.2096 120.185 41.0932L119.833 41.113V40.8926H120.733V41.0535C120.655 41.0493 120.578 41.0685 120.511 41.1086C120.464 41.1414 120.431 41.1912 120.42 41.2475C120.405 41.3244 120.398 41.4027 120.4 41.4811V41.6486V44.3687H120.166L118.046 41.5428Z" fill="#E6E7E8"/>
<path d="M121.942 44.167C121.695 44.0301 121.492 43.8259 121.358 43.5784C121.213 43.2978 121.141 42.9856 121.149 42.6703C121.148 42.3602 121.213 42.0534 121.342 41.7709C121.468 41.4945 121.667 41.2574 121.918 41.0854C122.193 40.9043 122.517 40.812 122.846 40.8209C123.026 40.8219 123.206 40.8456 123.38 40.8914C123.548 40.9326 123.708 40.9988 123.856 41.0876L123.836 40.854H124.104V41.9561H123.929C123.925 41.8239 123.893 41.6939 123.837 41.5739C123.782 41.4539 123.702 41.3463 123.604 41.2574C123.402 41.0866 123.144 40.997 122.879 41.0061C122.653 41.0047 122.432 41.0741 122.248 41.2044C122.054 41.3463 121.901 41.5363 121.805 41.7555C121.688 42.0037 121.63 42.2751 121.634 42.549C121.63 42.8297 121.686 43.108 121.801 43.3646C121.9 43.5916 122.061 43.7863 122.266 43.9267C122.464 44.0636 122.7 44.1353 122.941 44.1317C123.091 44.1321 123.24 44.1113 123.384 44.07C123.527 44.0316 123.662 43.9705 123.785 43.8892V42.8268L123.444 42.8444V42.624H124.552V42.7849C124.49 42.7758 124.427 42.7885 124.373 42.8207C124.32 42.8528 124.28 42.9026 124.259 42.9612C124.218 43.0909 124.198 43.2264 124.199 43.3624V44.1053H124.069C123.887 44.1154 123.708 44.158 123.542 44.2309C123.43 44.2744 123.314 44.3054 123.196 44.3235C123.075 44.3451 122.952 44.3569 122.828 44.3587C122.521 44.3724 122.216 44.3063 121.942 44.167Z" fill="#E6E7E8"/>
<path d="M126.939 44.1441C126.69 43.9937 126.486 43.7789 126.35 43.5225C126.202 43.2521 126.126 42.9487 126.128 42.6408C126.126 42.3328 126.192 42.0281 126.321 41.7481C126.446 41.4738 126.646 41.2395 126.897 41.0714C127.171 40.8921 127.493 40.8013 127.821 40.8113C128.172 40.8095 128.515 40.9123 128.806 41.1067L128.782 40.8444H129.059V41.9707H128.884C128.867 41.7044 128.753 41.4534 128.563 41.2654C128.375 41.0922 128.125 41.0003 127.869 41.0097C127.644 41.0078 127.423 41.0747 127.236 41.2015C127.042 41.3406 126.888 41.5295 126.793 41.7481C126.678 42.0059 126.621 42.2859 126.627 42.5681C126.622 42.844 126.682 43.1173 126.802 43.366C126.908 43.5875 127.072 43.7769 127.276 43.9149C127.472 44.0455 127.704 44.1139 127.94 44.1111C128.158 44.1109 128.374 44.0612 128.569 43.9656C128.768 43.8718 128.939 43.7301 129.068 43.5534L129.194 43.6548C129.032 43.8941 128.808 44.0847 128.545 44.2059C128.315 44.3087 128.066 44.3628 127.814 44.3646C127.507 44.3749 127.204 44.2984 126.939 44.1441Z" fill="#E6E7E8"/>
<path d="M130.308 44.1158C130.056 43.9548 129.857 43.7253 129.732 43.4545C129.608 43.1863 129.545 42.8944 129.546 42.5993C129.547 42.3085 129.612 42.0216 129.739 41.7595C129.867 41.4884 130.066 41.2563 130.315 41.0871C130.59 40.9048 130.915 40.8124 131.245 40.8226C131.567 40.8096 131.887 40.8915 132.162 41.0582C132.438 41.2248 132.658 41.4688 132.796 41.7595C132.924 42.0211 132.99 42.3082 132.99 42.5993C132.989 42.8882 132.924 43.1733 132.8 43.4347C132.671 43.7066 132.472 43.94 132.224 44.1114C131.949 44.2934 131.624 44.3859 131.294 44.3759C130.946 44.3903 130.603 44.2996 130.308 44.1158ZM131.945 43.9571C132.127 43.8102 132.269 43.6189 132.355 43.4016C132.446 43.1753 132.493 42.9335 132.492 42.6896C132.493 42.4159 132.442 42.1444 132.341 41.8895C132.248 41.6464 132.096 41.4299 131.898 41.2591C131.713 41.1055 131.48 41.019 131.239 41.0138C130.998 41.0086 130.762 41.085 130.569 41.2304C130.385 41.3778 130.243 41.5709 130.158 41.7903C130.065 42.0186 130.017 42.2626 130.018 42.5089C130.019 42.7717 130.067 43.0322 130.16 43.2782C130.246 43.5247 130.394 43.7454 130.589 43.9196C130.777 44.0768 131.012 44.1662 131.257 44.173C131.502 44.1798 131.742 44.1037 131.938 43.9571H131.945Z" fill="#E6E7E8"/>
<path d="M135.004 43.7377C134.758 43.1911 134.561 42.7612 134.428 42.4438C134.295 42.1264 134.157 41.7958 134.029 41.4475V41.6679C133.998 42.6157 133.98 43.2917 133.974 43.6958C133.976 43.7311 133.976 43.7664 133.974 43.8016C133.974 43.904 133.969 44.0063 133.958 44.108L134.326 44.0904V44.3108H133.393V44.1521C133.531 44.1521 133.615 44.1102 133.659 44.0375C133.707 43.933 133.731 43.8194 133.73 43.7047L133.836 41.108L133.486 41.1235V40.9141H134.233L134.897 42.4372C135.139 43.0015 135.325 43.4269 135.453 43.7201L135.701 43.0941C135.825 42.7825 135.966 42.4409 136.124 42.0691C136.31 41.6282 136.47 41.2513 136.603 40.9141H137.325V41.075C137.278 41.0687 137.229 41.074 137.185 41.0906C137.14 41.1071 137.1 41.1343 137.068 41.1698C137.003 41.2696 136.973 41.3884 136.984 41.507V41.604L137.112 43.8083C137.112 43.8832 137.112 43.9846 137.112 44.1102L137.469 44.097V44.3174H136.39V44.1587C136.439 44.1632 136.488 44.1555 136.533 44.1362C136.578 44.1169 136.617 44.0868 136.647 44.0485C136.7 43.9483 136.724 43.8353 136.716 43.7223C136.716 43.6606 136.716 43.6121 136.716 43.5812L136.587 41.5136C136.581 41.5351 136.572 41.5558 136.561 41.5753C136.55 41.6018 136.539 41.6326 136.525 41.6679L135.418 44.3659H135.269L135.004 43.7377Z" fill="#E6E7E8"/>
<path d="M137.919 44.1361C138.007 44.141 138.094 44.1135 138.163 44.0589C138.21 44.0123 138.239 43.9506 138.245 43.8848C138.245 43.8186 138.245 43.704 138.245 43.5387V41.4425C138.245 41.3058 138.245 41.189 138.26 41.092L137.91 41.1118V40.8914C138.353 40.8914 138.727 40.8914 138.998 40.8914C139.384 40.8648 139.769 40.9522 140.105 41.1427C140.227 41.2234 140.326 41.3344 140.391 41.4646C140.457 41.5949 140.487 41.74 140.48 41.8855C140.479 42.0747 140.427 42.2602 140.331 42.4233C140.208 42.6153 140.029 42.7646 139.817 42.851C139.512 42.9768 139.184 43.0348 138.854 43.0207H138.679V43.7239C138.681 43.8519 138.676 43.98 138.663 44.1074L139.106 44.0832V44.3036H137.919V44.1361ZM139.505 42.7209C139.659 42.6526 139.788 42.5402 139.878 42.398C139.967 42.2559 140.011 42.0905 140.006 41.923C140.016 41.8025 139.997 41.6813 139.95 41.5697C139.904 41.4581 139.831 41.3592 139.738 41.2815C139.52 41.1341 139.259 41.0628 138.995 41.0787C138.916 41.0724 138.837 41.096 138.774 41.1449C138.731 41.1893 138.704 41.2466 138.696 41.308C138.696 41.3719 138.696 41.4865 138.696 41.6541V42.8157C138.802 42.8255 138.907 42.83 139.013 42.8289C139.182 42.8286 139.349 42.7918 139.503 42.7209H139.505Z" fill="#E6E7E8"/>
<path d="M140.847 44.1353C140.935 44.1406 141.022 44.1131 141.091 44.0581C141.138 44.0118 141.168 43.9501 141.175 43.884C141.175 43.8179 141.175 43.7033 141.175 43.5379V41.4417C141.174 41.3247 141.179 41.2077 141.19 41.0912L140.838 41.1111V40.8906H141.946V41.0515C141.857 41.0456 141.769 41.0732 141.7 41.1287C141.653 41.1744 141.624 41.2354 141.618 41.3006C141.618 41.3667 141.618 41.4836 141.618 41.6467V43.7297C141.618 43.8972 141.618 44.0251 141.602 44.1088L142.515 44.0934C142.603 44.0986 142.691 44.0835 142.772 44.0495C142.853 44.0155 142.925 43.9634 142.982 43.8972C143.102 43.7161 143.157 43.5004 143.14 43.2845H143.306L143.275 44.2874H140.847V44.1353Z" fill="#E6E7E8"/>
<path d="M143.678 44.1353C143.766 44.1402 143.853 44.1128 143.921 44.0581C143.968 44.0111 143.998 43.9498 144.006 43.884C144.006 43.8179 144.006 43.7033 144.006 43.5379V41.4417C144.004 41.3247 144.01 41.2077 144.021 41.0912L143.669 41.1111V40.8906H144.765V41.0515C144.677 41.0455 144.59 41.0731 144.522 41.1287C144.475 41.1744 144.446 41.2354 144.44 41.3006C144.44 41.3667 144.44 41.4836 144.44 41.6467V43.7099C144.44 43.8818 144.44 44.0097 144.424 44.0934L144.774 44.0758V44.2962H143.678V44.1353Z" fill="#E6E7E8"/>
<path d="M145.007 44.1363C145.076 44.1395 145.145 44.1193 145.202 44.079C145.252 44.0396 145.292 43.99 145.321 43.9335C145.365 43.8466 145.402 43.7567 145.432 43.6646L145.481 43.5279L146.484 40.8057H146.602L147.689 43.5676C147.726 43.6604 147.757 43.7553 147.782 43.852C147.805 43.933 147.816 44.0169 147.815 44.101L148.148 44.0834V44.3038H147.04V44.1451C147.231 44.1451 147.328 44.0636 147.328 43.9115C147.323 43.8359 147.307 43.7616 147.279 43.691L147.109 43.2348L145.84 43.2634C145.791 43.3957 145.733 43.5698 145.669 43.7814C145.636 43.8894 145.596 44.0018 145.547 44.1165L145.928 44.0988V44.3193H145.007V44.1363ZM147.031 43.0342L146.684 42.1062L146.462 41.511L146.256 42.0577L145.995 42.7961L145.911 43.0342H147.031Z" fill="#E6E7E8"/>
<path d="M148.905 41.5428L148.921 43.6192C148.921 43.8397 148.921 43.9962 148.921 44.0998L149.271 44.0821V44.3026H148.385V44.1439C148.434 44.1508 148.485 44.1439 148.53 44.1241C148.576 44.1042 148.615 44.0722 148.644 44.0314C148.688 43.9479 148.709 43.8545 148.706 43.7603V41.0998L148.378 41.1196V40.8992H148.959L151.036 43.6655V41.4436C151.036 41.307 151.041 41.1901 151.049 41.0932L150.7 41.113V40.8926H151.597V41.0535C151.519 41.0496 151.442 41.0688 151.375 41.1086C151.328 41.1414 151.295 41.1912 151.284 41.2475C151.269 41.3244 151.262 41.4027 151.264 41.4811V41.6486V44.3687H151.03L148.905 41.5428Z" fill="#E6E7E8"/>
<path d="M152.804 44.1441C152.553 43.9944 152.349 43.7794 152.212 43.5225C152.069 43.2507 151.997 42.9476 152.002 42.6408C152 42.3328 152.065 42.0281 152.194 41.7481C152.319 41.4739 152.518 41.2396 152.768 41.0713C153.043 40.8924 153.366 40.8016 153.694 40.8112C154.045 40.8097 154.388 40.9125 154.68 41.1066L154.655 40.8443H154.917V41.9707H154.753C154.736 41.7049 154.622 41.4544 154.434 41.2653C154.245 41.0918 153.995 40.9999 153.738 41.0096C153.513 41.0082 153.293 41.0751 153.107 41.2014C152.912 41.3401 152.759 41.5291 152.664 41.7481C152.549 42.0061 152.493 42.286 152.5 42.568C152.495 42.844 152.555 43.1173 152.675 43.366C152.781 43.5869 152.944 43.7761 153.147 43.9148C153.344 44.0451 153.575 44.1134 153.811 44.111C154.029 44.1109 154.245 44.0611 154.44 43.9655C154.638 43.8717 154.809 43.73 154.937 43.5533L155.065 43.6547C154.903 43.8935 154.679 44.084 154.416 44.2058C154.185 44.3089 153.936 44.363 153.683 44.3645C153.375 44.3761 153.069 44.2996 152.804 44.1441Z" fill="#E6E7E8"/>
<path d="M155.455 44.1353C155.543 44.1402 155.63 44.1128 155.699 44.0581C155.746 44.0116 155.775 43.9499 155.781 43.884C155.781 43.8179 155.781 43.7033 155.781 43.5379V41.4417C155.781 41.305 155.781 41.1882 155.796 41.0912L155.446 41.1111V40.8906H157.792L157.816 41.7393H157.654C157.675 41.6474 157.673 41.5517 157.648 41.461C157.622 41.3703 157.574 41.2874 157.508 41.2199C157.442 41.1523 157.36 41.1024 157.269 41.0745C157.179 41.0467 157.083 41.0418 156.99 41.0604L156.569 41.0714C156.48 41.067 156.392 41.0893 156.317 41.1353C156.264 41.1781 156.23 41.2385 156.219 41.305C156.203 41.4182 156.197 41.5324 156.199 41.6467V42.4248H157.116L157.083 42.0082H157.304V43.0266H157.143C157.147 42.9334 157.132 42.8403 157.098 42.7532C157.087 42.7236 157.069 42.6969 157.046 42.6748C157.023 42.6528 156.996 42.6359 156.966 42.6254C156.883 42.6024 156.798 42.5919 156.713 42.5945H156.562L156.206 42.6099V43.7121C156.208 43.8386 156.203 43.9652 156.19 44.0912L157.123 44.0758C157.313 44.0864 157.499 44.025 157.646 43.9038C157.713 43.8242 157.764 43.7318 157.795 43.6322C157.826 43.5326 157.836 43.4278 157.825 43.3241H157.991L157.962 44.2698H155.455V44.1353Z" fill="#E6E7E8"/>
<defs>
<linearGradient id="paint0_linear_351_1255" x1="6.20503" y1="38.3652" x2="22.6716" y2="33.5139" gradientUnits="userSpaceOnUse">
<stop stop-color="#122162"/>
<stop offset="0.53" stop-color="#08C293"/>
<stop offset="0.58" stop-color="#09BA91"/>
<stop offset="0.67" stop-color="#0AA38A"/>
<stop offset="0.78" stop-color="#0C7F7F"/>
<stop offset="0.9" stop-color="#0F4C6F"/>
<stop offset="1" stop-color="#122162"/>
</linearGradient>
<linearGradient id="paint1_linear_351_1255" x1="39.2301" y1="40.9454" x2="24.5006" y2="30.5555" gradientUnits="userSpaceOnUse">
<stop stop-color="#122162"/>
<stop offset="0.53" stop-color="#08C293"/>
<stop offset="0.58" stop-color="#09BA91"/>
<stop offset="0.67" stop-color="#0AA38A"/>
<stop offset="0.78" stop-color="#0C7F7F"/>
<stop offset="0.9" stop-color="#0F4C6F"/>
<stop offset="1" stop-color="#122162"/>
</linearGradient>
<linearGradient id="paint2_linear_351_1255" x1="20.6372" y1="55.7361" x2="24.4629" y2="40.0019" gradientUnits="userSpaceOnUse">
<stop stop-color="#122162"/>
<stop offset="0.53" stop-color="#08C293"/>
<stop offset="0.58" stop-color="#09BA91"/>
<stop offset="0.67" stop-color="#0AA38A"/>
<stop offset="0.78" stop-color="#0C7F7F"/>
<stop offset="0.9" stop-color="#0F4C6F"/>
<stop offset="1" stop-color="#122162"/>
</linearGradient>
<linearGradient id="paint3_linear_351_1255" x1="14.514" y1="34.5205" x2="19.6996" y2="39.0126" gradientUnits="userSpaceOnUse">
<stop stop-color="#069470"/>
<stop offset="1" stop-color="#122162"/>
</linearGradient>
<linearGradient id="paint4_linear_351_1255" x1="34.2233" y1="29.9949" x2="28.8635" y2="34.3552" gradientUnits="userSpaceOnUse">
<stop stop-color="#069470"/>
<stop offset="1" stop-color="#122162"/>
</linearGradient>
<linearGradient id="paint5_linear_351_1255" x1="18.2221" y1="0.358636" x2="14.1753" y2="16.9728" gradientUnits="userSpaceOnUse">
<stop stop-color="#131131"/>
<stop offset="0.53" stop-color="#74A51E"/>
<stop offset="0.59" stop-color="#6F9D1F"/>
<stop offset="0.68" stop-color="#608622"/>
<stop offset="0.8" stop-color="#486227"/>
<stop offset="0.93" stop-color="#272F2D"/>
<stop offset="1" stop-color="#131131"/>
</linearGradient>
<linearGradient id="paint6_linear_351_1255" x1="-0.586821" y1="27.506" x2="15.7749" y2="19.8973" gradientUnits="userSpaceOnUse">
<stop stop-color="#131131"/>
<stop offset="0.53" stop-color="#74A51E"/>
<stop offset="0.59" stop-color="#6F9D1F"/>
<stop offset="0.68" stop-color="#608622"/>
<stop offset="0.8" stop-color="#486227"/>
<stop offset="0.93" stop-color="#272F2D"/>
<stop offset="1" stop-color="#131131"/>
</linearGradient>
<linearGradient id="paint7_linear_351_1255" x1="-4.12078" y1="4.07637" x2="7.56264" y2="15.3451" gradientUnits="userSpaceOnUse">
<stop stop-color="#131131"/>
<stop offset="0.53" stop-color="#74A51E"/>
<stop offset="0.59" stop-color="#6F9D1F"/>
<stop offset="0.68" stop-color="#608622"/>
<stop offset="0.8" stop-color="#486227"/>
<stop offset="0.93" stop-color="#272F2D"/>
<stop offset="1" stop-color="#131131"/>
</linearGradient>
<linearGradient id="paint8_linear_351_1255" x1="19.5788" y1="10.9353" x2="13.0608" y2="13.2238" gradientUnits="userSpaceOnUse">
<stop stop-color="#587D17"/>
<stop offset="1" stop-color="#131131"/>
</linearGradient>
<linearGradient id="paint9_linear_351_1255" x1="11.2691" y1="27.2649" x2="10.1964" y2="20.4843" gradientUnits="userSpaceOnUse">
<stop stop-color="#587D17"/>
<stop offset="1" stop-color="#131131"/>
</linearGradient>
<linearGradient id="paint10_linear_351_1255" x1="45.5717" y1="29.3891" x2="33.2096" y2="17.5195" gradientUnits="userSpaceOnUse">
<stop stop-color="#131131"/>
<stop offset="0.53" stop-color="#2AAAE1"/>
<stop offset="0.58" stop-color="#29A3D9"/>
<stop offset="0.66" stop-color="#268FC2"/>
<stop offset="0.76" stop-color="#216F9E"/>
<stop offset="0.88" stop-color="#1B436B"/>
<stop offset="1" stop-color="#131131"/>
</linearGradient>
<linearGradient id="paint11_linear_351_1255" x1="31.3217" y1="-0.379603" x2="29.7299" y2="17.5199" gradientUnits="userSpaceOnUse">
<stop stop-color="#131131"/>
<stop offset="0.53" stop-color="#2AAAE1"/>
<stop offset="0.58" stop-color="#29A3D9"/>
<stop offset="0.66" stop-color="#268FC2"/>
<stop offset="0.76" stop-color="#216F9E"/>
<stop offset="0.88" stop-color="#1B436B"/>
<stop offset="1" stop-color="#131131"/>
</linearGradient>
<linearGradient id="paint12_linear_351_1255" x1="53.4854" y1="8.26725" x2="37.8763" y2="12.8335" gradientUnits="userSpaceOnUse">
<stop stop-color="#131131"/>
<stop offset="0.53" stop-color="#2AAAE1"/>
<stop offset="0.58" stop-color="#29A3D9"/>
<stop offset="0.66" stop-color="#268FC2"/>
<stop offset="0.76" stop-color="#216F9E"/>
<stop offset="0.88" stop-color="#1B436B"/>
<stop offset="1" stop-color="#131131"/>
</linearGradient>
<linearGradient id="paint13_linear_351_1255" x1="34.6294" y1="23.8286" x2="35.9177" y2="17.0468" gradientUnits="userSpaceOnUse">
<stop stop-color="#3A6EC1"/>
<stop offset="1" stop-color="#131131"/>
</linearGradient>
<linearGradient id="paint14_linear_351_1255" x1="27.0836" y1="10.2635" x2="33.5399" y2="12.7255" gradientUnits="userSpaceOnUse">
<stop stop-color="#3A6EC1"/>
<stop offset="1" stop-color="#131131"/>
</linearGradient>
</defs>
</svg>
