<svg width="158" height="48" viewBox="0 0 158 48" fill="none" xmlns="http://www.w3.org/2000/svg">
<path d="M53.1774 0H52.6147V48H53.1774V0Z" fill="black"/>
<path d="M8.10156 34.74C8.98695 35.0312 9.90274 35.2211 10.8313 35.3062L10.8042 35.3269C10.6359 35.4798 10.5003 35.6649 10.4056 35.8712C10.3108 36.0775 10.2589 36.3007 10.2529 36.5274C10.2469 36.7541 10.2868 36.9797 10.3705 37.1907C10.4541 37.4016 10.5796 37.5937 10.7396 37.7552C11.0049 38.0201 11.3512 38.1896 11.724 38.2369C12.0967 38.2842 12.4747 38.2066 12.7983 38.0165C12.9206 37.9442 13.0339 37.8579 13.1359 37.7594L22.0085 28.8818C22.0085 30.5242 22.0231 32.235 22.0085 33.9313C21.996 37.1621 19.1308 40.2395 15.8823 40.5236C15.4655 40.5609 15.0488 40.5672 14.6153 40.5651C14.5758 40.5651 14.532 40.5651 14.4924 40.5651H14.2111C12.517 40.5651 10.8229 40.5651 9.09551 40.5754H8.11198L8.10156 34.74Z" fill="url(#paint0_linear_93_1386)"/>
<path d="M39.3702 40.5085H38.1595C36.255 40.5085 34.3609 40.5188 32.4667 40.5188C31.9066 40.5143 31.3483 40.4552 30.7997 40.3426C29.2815 39.9854 27.9286 39.1296 26.9592 37.9132C25.9898 36.6968 25.4606 35.1908 25.457 33.6383C25.457 32.1722 25.4049 30.3203 25.4028 28.8418L34.1087 37.7712C34.4378 38.1101 34.8885 38.3052 35.362 38.3138C35.8355 38.3223 36.293 38.1436 36.6342 37.8168C36.8094 37.6495 36.9487 37.4485 37.0435 37.2261C37.1383 37.0036 37.1867 36.7643 37.1857 36.5226C37.1847 36.281 37.1344 36.0421 37.0378 35.8204C36.9412 35.5987 36.8004 35.3988 36.6238 35.233L36.5884 35.1998C37.5281 35.1485 38.4567 34.972 39.3493 34.6751L39.3702 40.5085Z" fill="url(#paint1_linear_93_1386)"/>
<path d="M21.5001 47.0194L21.2084 46.7291C20.9025 46.4196 20.6636 46.0511 20.5062 45.6462C20.3489 45.2413 20.2765 44.8086 20.2934 44.3748C20.3104 43.9411 20.4164 43.5153 20.605 43.1239C20.7935 42.7324 21.0605 42.3834 21.3897 42.0985L21.573 41.9306C22.1689 41.37 22.9577 41.0576 23.7777 41.0576C24.5976 41.0576 25.3864 41.37 25.9823 41.9306L26.1219 42.0571C27.493 43.3013 27.6222 45.3854 26.3136 46.6897L25.9843 47.0194C25.3896 47.6111 24.5831 47.9434 23.7422 47.9434C22.9013 47.9434 22.0948 47.6111 21.5001 47.0194Z" fill="url(#paint2_linear_93_1386)"/>
<path d="M22.0856 28.8682C22.0856 28.8682 20.9917 38.6415 12.019 38.1542C12.2941 38.1449 12.5625 38.0679 12.8004 37.9302C12.9245 37.8587 13.0393 37.7724 13.1422 37.6731L22.0856 28.8682Z" fill="url(#paint3_linear_93_1386)"/>
<path d="M25.4883 28.8574C25.4883 28.8574 26.3218 38.6557 35.3069 38.3965C35.0315 38.3785 34.7646 38.2938 34.5296 38.1497C34.4105 38.0775 34.3 37.9919 34.2004 37.8946L25.4883 28.8574Z" fill="url(#paint4_linear_93_1386)"/>
<path d="M20.6562 3.42027C19.9612 4.04004 19.3384 4.73565 18.7996 5.49397V5.46079C18.7509 5.23889 18.6576 5.02909 18.5253 4.84401C18.393 4.65893 18.2245 4.5024 18.0298 4.38383C17.8351 4.26527 17.6184 4.18713 17.3926 4.15411C17.1668 4.12108 16.9366 4.13387 16.7159 4.19168C16.3538 4.28838 16.0344 4.5023 15.808 4.79968C15.5816 5.09707 15.4611 5.461 15.4656 5.83406C15.4686 5.97385 15.4867 6.11291 15.5198 6.2488L18.81 18.3343C17.3785 17.5194 15.8928 16.6754 14.4133 15.8148C11.6065 14.189 10.3605 10.1805 11.7399 7.24003C11.9108 6.86676 12.115 6.50593 12.3358 6.12645C12.3588 6.09327 12.3754 6.05387 12.3984 6.01862L12.5359 5.77599C13.3694 4.31196 14.2237 2.85415 15.0822 1.36108L15.5761 0.508789L20.6562 3.42027Z" fill="url(#paint5_linear_93_1386)"/>
<path d="M0 27.4871L0.60012 26.4502C1.54892 24.8051 2.49494 23.1676 3.43818 21.5376C3.72196 21.0575 4.05206 20.6061 4.42379 20.1897C5.49512 19.0617 6.91687 18.3255 8.45993 18.0998C10.003 17.8741 11.5775 18.172 12.9296 18.9455C14.2091 19.6734 15.8469 20.5651 17.1284 21.2971L5.00724 24.3247C4.54585 24.4397 4.14927 24.7324 3.90466 25.1384C3.66005 25.5444 3.58745 26.0304 3.70282 26.4896C3.76068 26.7244 3.86593 26.9451 4.01215 27.1382C4.15837 27.3313 4.34251 27.4928 4.55339 27.6128C4.76427 27.7329 4.99749 27.809 5.23885 27.8366C5.48022 27.8642 5.72469 27.8426 5.95743 27.7732L6.00536 27.7587C5.58044 28.5946 5.26931 29.483 5.08017 30.4006L0 27.4871Z" fill="url(#paint6_linear_93_1386)"/>
<path d="M3.27357 8.83022L3.67157 8.72446C4.09383 8.61573 4.53398 8.59416 4.96493 8.66106C5.39588 8.72796 5.80852 8.88192 6.17744 9.11347C6.54636 9.34502 6.86375 9.64926 7.1101 10.0075C7.35644 10.3657 7.52651 10.7703 7.60985 11.1963C7.62652 11.2772 7.64527 11.3581 7.66402 11.4389C7.85513 12.2324 7.73383 13.0685 7.32503 13.7757C6.91623 14.4829 6.25093 15.0076 5.46568 15.2421L5.28439 15.2981C3.52362 15.8601 1.63783 14.9269 1.15649 13.1477L1.03563 12.6977C0.81718 11.8895 0.930225 11.028 1.3499 10.3028C1.76958 9.57752 2.46153 9.04784 3.27357 8.83022Z" fill="url(#paint7_linear_93_1386)"/>
<path d="M18.7809 18.4024C18.7809 18.4024 10.8231 12.5732 15.7324 5.08301C15.6033 5.32579 15.5361 5.59636 15.5365 5.87102C15.538 6.01079 15.5555 6.14993 15.5886 6.28576L18.7809 18.4024Z" fill="url(#paint8_linear_93_1386)"/>
<path d="M17.0784 21.3476C17.0784 21.3476 8.13496 17.1691 3.86328 25.0388C4.0157 24.8097 4.22255 24.6217 4.46548 24.4913C4.59089 24.4242 4.72377 24.372 4.86139 24.3358L17.0784 21.3476Z" fill="url(#paint9_linear_93_1386)"/>
<path d="M41.6339 29.8994C41.4426 28.9918 41.1498 28.1084 40.7608 27.2658L40.7921 27.2761C41.0093 27.3449 41.2382 27.3693 41.465 27.348C41.6919 27.3266 41.9122 27.2599 42.1125 27.1519C42.3129 27.0439 42.4894 26.8967 42.6312 26.7192C42.7731 26.5418 42.8776 26.3376 42.9384 26.119C43.0357 25.7578 43.0097 25.3747 42.8645 25.0297C42.7193 24.6848 42.4631 24.3976 42.1361 24.2133C42.0116 24.1442 41.8795 24.0899 41.7423 24.0515L29.5815 20.8435C31.0068 20.014 32.4988 19.1535 33.972 18.3136C36.7892 16.7086 40.9005 17.6376 42.7717 20.2961C43.0127 20.6419 43.236 20.9997 43.4405 21.3682C43.4593 21.4034 43.4864 21.4387 43.5051 21.4739L43.6468 21.7145C44.4991 23.1661 45.3451 24.6322 46.214 26.1169L46.712 26.9692L41.6339 29.8994Z" fill="url(#paint10_linear_93_1386)"/>
<path d="M31.0168 0.0673828L31.6211 1.10423C32.5768 2.74246 33.5291 4.37654 34.4779 6.00647C34.7541 6.4911 34.9816 7.00162 35.1572 7.53064C35.6047 9.01772 35.5361 10.6115 34.9622 12.055C34.3884 13.4984 33.3428 14.7076 31.9941 15.4874C30.7209 16.2257 29.1248 17.1941 27.8474 17.9303L31.2648 5.96085C31.3939 5.50658 31.3368 5.01987 31.106 4.60743C30.8751 4.195 30.4894 3.89048 30.0333 3.76065C29.8001 3.69316 29.5555 3.67361 29.3145 3.70318C29.0734 3.73275 28.841 3.81083 28.6312 3.93266C28.4215 4.05449 28.2388 4.21752 28.0944 4.41183C27.95 4.60615 27.8468 4.82768 27.7912 5.06294L27.7787 5.11063C27.2644 4.32648 26.647 3.6144 25.9429 2.99338L31.0168 0.0673828Z" fill="url(#paint11_linear_93_1386)"/>
<path d="M45.6154 12.2157L45.5091 12.6118C45.3927 13.03 45.1914 13.4201 44.9178 13.7581C44.6442 14.096 44.3039 14.3747 43.918 14.5769C43.5321 14.7791 43.1087 14.9006 42.6739 14.9339C42.2391 14.9672 41.802 14.9116 41.3896 14.7705L41.152 14.6958C40.3658 14.4639 39.6986 13.9412 39.2875 13.2351C38.8763 12.529 38.7524 11.693 38.9412 10.8989C38.9558 10.8387 38.9683 10.7765 38.9828 10.7143C39.3725 8.91434 41.1291 7.75929 42.9169 8.22587L43.3691 8.34614C43.7723 8.45275 44.1504 8.63753 44.4817 8.88989C44.813 9.14224 45.091 9.45721 45.2997 9.81671C45.5084 10.1762 45.6437 10.5732 45.6979 10.9849C45.752 11.3965 45.724 11.8148 45.6154 12.2157Z" fill="url(#paint12_linear_93_1386)"/>
<path d="M29.5312 20.7833C29.5312 20.7833 38.583 16.8432 42.6463 24.8146C42.4196 24.462 42.0713 24.204 41.667 24.0888L29.5312 20.7833Z" fill="url(#paint13_linear_93_1386)"/>
<path d="M27.8208 17.8555C27.8208 17.8555 35.9307 12.2357 31.2194 4.62109C31.3427 4.86667 31.4028 5.13885 31.3944 5.41324C31.3897 5.55342 31.3687 5.69258 31.3319 5.82798L27.8208 17.8555Z" fill="url(#paint14_linear_93_1386)"/>
<path d="M56.8235 12.7825C57.0872 12.7985 57.3474 12.7157 57.5528 12.5502C57.6941 12.4137 57.7813 12.2312 57.7987 12.0359C57.8195 11.8286 57.8279 11.4905 57.8279 10.9991V4.73442C57.8279 4.33005 57.8445 3.98166 57.8716 3.69757L56.8297 3.75563V3.119C58.1911 3.09826 59.274 3.08859 60.0783 3.08997C61.5272 3.08997 62.6225 3.34089 63.3644 3.84273C64.1062 4.34456 64.4778 5.08418 64.4792 6.06159C64.4778 6.62802 64.3238 7.18373 64.0332 7.67078C63.7374 8.1823 63.2275 8.6074 62.5038 8.94611C61.78 9.28481 60.8194 9.4521 59.622 9.44795C59.399 9.44795 59.224 9.44795 59.0989 9.43343V11.5362C59.1044 11.9182 59.0898 12.3003 59.0552 12.6809L60.395 12.6083V13.2594H56.8235V12.7825ZM61.5661 8.55625C62.0128 8.35147 62.3916 8.02417 62.658 7.61272C62.9329 7.17891 63.0729 6.67387 63.0601 6.16113C63.0601 5.29294 62.7927 4.65562 62.2579 4.24917C61.7231 3.84273 60.9833 3.64227 60.0387 3.6478C59.7896 3.62312 59.5408 3.69768 59.3469 3.85517C59.2175 3.98599 59.138 4.15756 59.1219 4.34042C59.101 4.52912 59.0927 4.87336 59.0927 5.37727V8.84242C59.4069 8.875 59.7228 8.88953 60.0387 8.88597C60.5663 8.89166 61.0883 8.77896 61.5661 8.55625Z" fill="black"/>
<path d="M64.2688 12.7819C64.476 12.7922 64.6807 12.7331 64.8502 12.6139C65.0005 12.4978 65.123 12.3497 65.2086 12.1805C65.3338 11.9191 65.4431 11.6505 65.5357 11.3759L65.6816 10.9612L68.6822 2.82812H69.0322L72.2808 11.0752C72.3915 11.3524 72.484 11.6364 72.5579 11.9255C72.6269 12.1683 72.6613 12.4196 72.66 12.672L73.6498 12.6139V13.2506H70.3158V12.7736C70.8896 12.7639 71.1764 12.5317 71.1764 12.0768C71.1655 11.8437 71.1162 11.6139 71.0306 11.3967L70.52 10.0342L66.7318 10.1193C66.5859 10.5153 66.4171 11.0338 66.2234 11.6704C66.1247 11.9897 66.0032 12.3236 65.8587 12.672L66.9943 12.6139V13.2506H64.2688V12.7819ZM70.3117 9.50545L69.2698 6.73498L68.6134 4.9516H68.5842L67.9716 6.59189L67.186 8.79417L66.9381 9.50545H70.3117Z" fill="black"/>
<path d="M74.2769 12.7826C74.5401 12.7996 74.8 12.7166 75.0041 12.5503C75.1445 12.4132 75.2316 12.231 75.25 12.0361C75.2708 11.8287 75.2791 11.4907 75.2791 10.9992V4.73456C75.2791 4.33018 75.2937 3.9818 75.3229 3.69771L74.281 3.75577V3.11914H77.5588V3.5961C77.295 3.58003 77.0348 3.66289 76.8294 3.82835C76.6883 3.96521 76.6004 4.14742 76.5815 4.34263C76.5627 4.55 76.5523 4.88801 76.5523 5.37948V11.6006C76.5582 11.9785 76.5443 12.3564 76.5106 12.7328L79.2341 12.6893C79.855 12.6796 80.3211 12.484 80.6323 12.1024C80.9428 11.7188 81.099 11.1091 81.099 10.2672H81.595L81.5012 13.2596H74.2769V12.7826Z" fill="black"/>
<path d="M82.6975 12.7826C82.9607 12.7996 83.2206 12.7166 83.4247 12.5503C83.5659 12.4135 83.6537 12.2313 83.6727 12.0361C83.6935 11.8287 83.7019 11.4907 83.7019 10.9992V4.73456C83.7019 4.33018 83.7165 3.9818 83.7456 3.69771L82.7038 3.75577V3.11914H85.9815V3.5961C85.7178 3.58003 85.4575 3.66289 85.2522 3.82835C85.111 3.96521 85.0232 4.14742 85.0042 4.34263C84.9855 4.55 84.975 4.88801 84.975 5.37948V11.5425C84.9806 11.9246 84.966 12.3067 84.9313 12.6872L85.9732 12.6291V13.2658H82.6975V12.7826Z" fill="black"/>
<path d="M59.0827 25.4395C58.3395 25.0353 57.7317 24.4233 57.3344 23.679C56.899 22.8419 56.684 21.9087 56.7093 20.9665C56.705 20.042 56.9012 19.1275 57.2844 18.2853C57.6591 17.4562 58.257 16.7464 59.0118 16.2344C59.83 15.6926 60.7967 15.4166 61.779 15.4443C62.3178 15.4458 62.8541 15.5155 63.3752 15.6516C63.8749 15.7761 64.3531 15.9739 64.7942 16.2385L64.7359 15.5438H65.5381V18.8617H65.013C65.0014 18.4666 64.9096 18.0779 64.743 17.7191C64.5765 17.3602 64.3388 17.0386 64.0441 16.7735C63.4434 16.2615 62.6716 15.9922 61.8811 16.0187C61.2053 16.0146 60.5453 16.2229 59.9953 16.6138C59.4066 17.0341 58.9395 17.6013 58.6409 18.2583C58.2963 19.0015 58.1239 19.8122 58.1366 20.6306C58.1215 21.4684 58.2908 22.2993 58.6326 23.0651C58.9292 23.742 59.408 24.324 60.0162 24.7469C60.6114 25.1544 61.3192 25.3675 62.0416 25.3566C62.4777 25.354 62.9115 25.2933 63.3314 25.1762C63.7597 25.0615 64.1659 24.8773 64.5337 24.6308V21.4601L63.5127 21.5182V20.8898H66.805V21.3709C66.3404 21.3709 66.0486 21.5451 65.9319 21.8997C65.8101 22.2861 65.7511 22.6893 65.7569 23.0942V25.313H65.3631C64.8208 25.3408 64.288 25.4651 63.7898 25.6801C63.4532 25.8079 63.104 25.9004 62.748 25.9559C62.3867 26.0196 62.0208 26.0536 61.654 26.0575C60.7579 26.0733 59.8727 25.8606 59.0827 25.4395Z" fill="black"/>
<path d="M67.9114 25.3468C68.1746 25.3638 68.4345 25.2808 68.6386 25.1145C68.7798 24.9777 68.8676 24.7955 68.8866 24.6003C68.9053 24.4033 68.9157 24.0569 68.9157 23.5634V17.2987C68.9157 16.8944 68.9303 16.546 68.9595 16.2619L67.9176 16.32V15.6833C68.9262 15.6626 69.6888 15.6543 70.2097 15.6543C70.6765 15.6543 71.0266 15.6543 71.2516 15.6688C72.6213 15.6868 73.6236 15.9163 74.2585 16.3573C74.5685 16.5668 74.8191 16.8521 74.9862 17.1859C75.1534 17.5196 75.2314 17.8906 75.2128 18.263C75.2284 18.9128 75.0179 19.5479 74.6169 20.0609C74.2085 20.5945 73.4993 20.9616 72.4894 21.1621C72.6583 21.2928 72.8101 21.444 72.9415 21.612C73.0805 21.7862 73.2645 22.0572 73.4937 22.4249L74.4856 23.9761C74.6492 24.2435 74.8265 24.5024 75.0169 24.7516C75.1561 24.9293 75.3297 25.0774 75.5275 25.1871C75.7544 25.3041 76.0076 25.3612 76.263 25.353V25.832H74.4168C74.1712 25.6267 73.949 25.3951 73.7542 25.1415C73.5736 24.9065 73.3652 24.6003 73.1291 24.2228L72.1518 22.6717L71.9622 22.3669C71.808 22.1056 71.6704 21.8941 71.5454 21.7282C71.4353 21.5703 71.3089 21.4244 71.1683 21.2927C71.0297 21.3049 70.8906 21.3098 70.7515 21.3072C70.489 21.3072 70.2952 21.3072 70.1681 21.2927V24.1067C70.1736 24.4888 70.159 24.8709 70.1243 25.2514L71.1662 25.1933V25.832H67.9114V25.3468ZM73.7917 18.4165C73.7917 17.6824 73.5785 17.1294 73.152 16.7575C72.7255 16.3856 72.0698 16.2018 71.1849 16.2059C70.9244 16.1828 70.6646 16.2567 70.4556 16.4133C70.3133 16.5407 70.2248 16.7171 70.2077 16.9068C70.1889 17.0997 70.1785 17.4439 70.1785 17.9437V20.7245C70.4702 20.7452 70.6848 20.7535 70.8203 20.7535C72.8012 20.7508 73.7917 19.9717 73.7917 18.4165Z" fill="black"/>
<path d="M79.2094 25.2886C78.4581 24.8063 77.8615 24.1197 77.4903 23.3103C77.1219 22.5065 76.9328 21.6328 76.9361 20.7493C76.9377 19.8811 77.135 19.0244 77.5133 18.2422C77.8939 17.4316 78.487 16.7382 79.2303 16.2348C80.0506 15.6911 81.0207 15.4149 82.0058 15.4447C83.0139 15.4138 84.0076 15.6894 84.8543 16.2348C85.6116 16.7333 86.2188 17.4271 86.6109 18.2422C86.9913 19.0239 87.19 19.8807 87.1923 20.7493C87.189 21.6156 86.9925 22.4705 86.6172 23.2522C86.2368 24.0658 85.6429 24.7621 84.8981 25.2679C84.0773 25.8106 83.1075 26.0866 82.1225 26.0579C80.9528 26.0579 79.9818 25.8015 79.2094 25.2886ZM84.0979 24.8179C84.6419 24.3785 85.0632 23.8072 85.3211 23.1589C85.5989 22.4823 85.7405 21.758 85.7378 21.0271C85.7388 20.211 85.5854 19.402 85.2856 18.6424C85.0138 17.9156 84.5631 17.2682 83.975 16.7595C83.4187 16.2762 82.7025 16.0148 81.9641 16.0254C81.2581 16.0082 80.5682 16.2371 80.0138 16.6724C79.4604 17.1107 79.0352 17.6886 78.7823 18.3458C78.5056 19.0278 78.3641 19.7566 78.3655 20.4921C78.3679 21.2764 78.5089 22.0542 78.7823 22.7898C79.0415 23.5246 79.4822 24.1827 80.0638 24.7038C80.623 25.1744 81.3263 25.4422 82.0583 25.4633C82.7904 25.4844 83.5081 25.2576 84.0937 24.8199L84.0979 24.8179Z" fill="black"/>
<path d="M90.8638 25.5133C90.2498 25.1315 89.7942 24.5427 89.5802 23.8543C89.3239 23.1037 89.1947 22.1166 89.1947 20.8869V17.9401C89.1947 17.318 89.2135 16.7602 89.2531 16.2563L88.2112 16.2998V15.6777H91.4743V16.1547C91.0472 16.1547 90.7742 16.2667 90.6575 16.4886C90.5342 16.7408 90.4741 17.019 90.4825 17.2994V20.9553C90.4706 21.6889 90.5468 22.4213 90.7096 23.1368C90.8411 23.7189 91.1513 24.2458 91.5973 24.6444C92.039 25.0357 92.6732 25.2313 93.4997 25.2313C94.5083 25.2313 95.2584 24.8857 95.7502 24.1944C96.2419 23.5032 96.4968 22.5631 96.5149 21.3742L96.5587 17.2994C96.5587 16.895 96.5732 16.5466 96.6024 16.2625L95.5605 16.3206V15.684H98.2694V16.1609C98.001 16.1432 97.7357 16.226 97.5255 16.3932C97.3844 16.53 97.2965 16.7122 97.2776 16.9074C97.2588 17.1148 97.2484 17.4528 97.2484 17.9443L97.2213 21.3058C97.213 22.7076 96.8997 23.8509 96.2815 24.7357C95.6633 25.6205 94.6708 26.0628 93.3039 26.0628C92.2745 26.0601 91.4611 25.8769 90.8638 25.5133Z" fill="black"/>
<path d="M99.509 25.3469C99.7729 25.3644 100.034 25.2814 100.238 25.1147C100.379 24.9778 100.467 24.7956 100.486 24.6004C100.505 24.4034 100.513 24.0571 100.513 23.5635V17.2989C100.513 16.8945 100.53 16.5461 100.559 16.262L99.5174 16.3201V15.6835C100.879 15.6627 101.962 15.653 102.766 15.6544C104.215 15.6544 105.31 15.9053 106.052 16.4072C106.794 16.909 107.165 17.6486 107.167 18.626C107.166 19.1925 107.012 19.7483 106.721 20.2352C106.356 20.8075 105.821 21.253 105.191 21.5106C104.468 21.8479 103.509 22.0172 102.316 22.0186C102.091 22.0186 101.916 22.0186 101.791 22.0041V24.1068C101.796 24.4889 101.782 24.871 101.747 25.2515L103.087 25.1789V25.8322H99.509V25.3469ZM104.252 21.1207C104.709 20.9136 105.094 20.5769 105.36 20.1527C105.626 19.7285 105.76 19.2356 105.746 18.7359C105.746 17.865 105.478 17.227 104.943 16.8219C104.409 16.4169 103.67 16.2136 102.728 16.2123C102.479 16.1876 102.231 16.2621 102.037 16.4196C101.907 16.5504 101.828 16.722 101.812 16.9049C101.791 17.0936 101.782 17.4399 101.782 17.9417V21.4048C102.097 21.4374 102.413 21.4519 102.728 21.4484C103.254 21.4543 103.775 21.3423 104.252 21.1207Z" fill="black"/>
<path d="M58.8556 38.4347C58.4215 38.3223 58.0105 38.1357 57.6407 37.8831L57.7137 38.5052H56.9552L56.8677 35.4174H57.4365C57.4845 36.2469 57.772 36.8877 58.295 37.3398C58.855 37.8001 59.5655 38.0393 60.2913 38.0116C60.8306 38.0285 61.3589 37.8576 61.7853 37.5285C61.9834 37.3693 62.1412 37.1661 62.2462 36.9353C62.3511 36.7045 62.4002 36.4524 62.3896 36.1992C62.3996 35.8164 62.2792 35.4415 62.0479 35.1354C61.8165 34.8367 61.5292 34.5853 61.2019 34.3951C60.8671 34.1988 60.4128 33.9693 59.8391 33.7066C59.189 33.3977 58.6722 33.126 58.2888 32.8958C57.9011 32.6583 57.5664 32.3442 57.3053 31.973C57.0192 31.5583 56.8732 31.0637 56.8885 30.5608C56.8919 30.1589 56.9836 29.7625 57.1573 29.3996C57.3633 28.9862 57.6883 28.6433 58.0908 28.4146C58.6263 28.1185 59.2333 27.975 59.8453 27.9998C60.2903 28.0007 60.7335 28.0572 61.1644 28.1678C61.6037 28.2774 62.0172 28.4719 62.3813 28.7401L62.3229 28.118H63.0647V31.3074H62.5417C62.5138 30.6001 62.2556 29.9211 61.8062 29.3726C61.5776 29.1083 61.2912 28.8996 60.969 28.7627C60.6468 28.6257 60.2973 28.5641 59.9475 28.5825C59.6983 28.5687 59.4489 28.6045 59.2138 28.6878C58.9787 28.7711 58.7627 28.9003 58.5784 29.0678C58.4165 29.2248 58.2889 29.4135 58.2036 29.6218C58.1183 29.8302 58.077 30.0539 58.0825 30.2788C58.0746 30.6406 58.1932 30.9939 58.418 31.2783C58.6428 31.5606 58.9201 31.7972 59.2348 31.9751C59.5536 32.1576 60.0058 32.3898 60.5892 32.6553C61.135 32.8973 61.6671 33.1687 62.1833 33.4682C62.588 33.7108 62.9377 34.0342 63.2106 34.4179C63.5016 34.8451 63.6477 35.3538 63.6273 35.8695C63.6371 36.377 63.4981 36.8764 63.2273 37.3066C62.9401 37.7379 62.5322 38.076 62.0541 38.2792C61.4737 38.5225 60.848 38.6405 60.2183 38.6255C59.7576 38.6225 59.2993 38.5584 58.8556 38.4347Z" fill="black"/>
<path d="M65.0837 37.9115C65.3472 37.9281 65.6074 37.846 65.8131 37.6813C65.9546 37.5439 66.0425 37.3609 66.061 37.165C66.0798 36.9576 66.0881 36.6217 66.0881 36.1281V29.8655C66.0881 29.4508 66.1048 29.1128 66.1339 28.8287L65.0921 28.8867V28.248H72.0997L72.1726 30.7863H71.6913C71.6913 29.992 71.5204 29.4529 71.1745 29.1626C70.8286 28.8722 70.341 28.7374 69.7159 28.7478L68.4657 28.7768C68.1994 28.7634 67.9355 28.8314 67.7093 28.9718C67.5498 29.0973 67.4452 29.2793 67.4175 29.4798C67.3705 29.8185 67.351 30.1604 67.3592 30.5022V32.8206L70.0972 32.8371L69.9951 31.5929H70.6369V34.6392H70.1556C70.1705 34.3566 70.1258 34.074 70.0243 33.8097C69.9874 33.7227 69.9328 33.6443 69.8639 33.5794C69.7951 33.5144 69.7135 33.4643 69.6242 33.4323C69.3808 33.3614 69.1275 33.3299 68.8741 33.339L68.4219 33.3535L67.3592 33.397V36.715C67.3646 37.0922 67.35 37.4695 67.3154 37.8451L70.0972 37.8037C70.7765 37.7933 71.2975 37.6212 71.6559 37.2873C72.0143 36.9535 72.1956 36.377 72.1956 35.5558H72.6915L72.604 38.3822H65.0837V37.9115Z" fill="black"/>
<path d="M74.146 37.9112C74.4095 37.9279 74.6696 37.8458 74.8753 37.6811C75.0161 37.5434 75.1033 37.3604 75.1212 37.1647C75.142 36.9573 75.1504 36.6214 75.1504 36.1279V29.8653C75.1504 29.4505 75.1649 29.1125 75.1941 28.8284L74.1522 28.8865V28.2478C75.1622 28.2298 75.9262 28.2201 76.4444 28.2188C76.909 28.2188 77.2591 28.2188 77.4862 28.2333C78.8546 28.2526 79.8575 28.4828 80.4952 28.9238C80.8049 29.1336 81.0553 29.419 81.2224 29.7527C81.3895 30.0864 81.4677 30.4571 81.4495 30.8295C81.4642 31.4795 81.253 32.1146 80.8515 32.6274C80.4431 33.1583 79.7339 33.5254 78.724 33.7286C78.8939 33.8582 79.0459 34.0095 79.1762 34.1786C79.3116 34.3507 79.4971 34.6223 79.7304 34.9894L80.7202 36.5426C80.9286 36.8806 81.112 37.1377 81.2516 37.3182C81.3913 37.4948 81.5648 37.6421 81.7621 37.7516C81.989 37.8686 82.2422 37.9257 82.4977 37.9175V38.3965H80.6681C80.422 38.1924 80.1997 37.9615 80.0055 37.708C79.8263 37.4716 79.6137 37.1647 79.3804 36.7873L78.376 35.2299L78.1885 34.9251C78.0322 34.6659 77.8967 34.4523 77.7717 34.2885C77.6608 34.1306 77.5337 33.9847 77.3925 33.853C77.2539 33.8653 77.1148 33.8701 76.9757 33.8675C76.7132 33.8675 76.5194 33.8675 76.3944 33.853V36.6649C76.3999 37.0477 76.3853 37.4305 76.3506 37.8117L77.3925 37.7536V38.3903H74.146V37.9112ZM80.0305 30.9809C80.0305 30.2468 79.8173 29.6938 79.3908 29.322C78.9643 28.9501 78.3086 28.7662 77.4237 28.7704C77.1631 28.7458 76.9027 28.8199 76.6944 28.9777C76.5526 29.1056 76.4642 29.2817 76.4464 29.4713C76.4277 29.6641 76.4194 30.0063 76.4194 30.5081V33.291C76.709 33.3118 76.9236 33.3201 77.0591 33.3201C79.0414 33.3173 80.0319 32.5376 80.0305 30.9809Z" fill="black"/>
<path d="M83.8038 30.8239C83.5131 30.1953 83.3031 29.5327 83.1786 28.8519L82.3618 28.8809V28.2422H85.7416V28.7212L85.7271 28.7357C85.476 28.7327 85.2299 28.805 85.0207 28.9431C84.9443 29.0081 84.8841 29.0899 84.845 29.182C84.806 29.2742 84.7891 29.3742 84.7956 29.474C84.8106 29.7613 84.8814 30.0429 85.004 30.3034L85.3812 31.2304L85.825 32.3336C86.025 32.8258 86.2126 33.2751 86.3876 33.6815L86.7648 34.5649C87.144 35.4248 87.4114 36.0628 87.567 36.4789H87.5962L88.1359 34.9278L88.3255 34.4052L89.607 30.826L89.9425 29.897C90.0622 29.5325 90.2013 29.1747 90.3592 28.8249L89.2382 28.883V28.2443H92.195V28.7233C91.8381 28.7174 91.4904 28.8355 91.2115 29.0572C90.9192 29.3647 90.7049 29.7372 90.5864 30.1438L87.5128 38.5381H87.0961L83.8038 30.8239Z" fill="black"/>
<path d="M92.7351 37.9115C92.9986 37.9281 93.2588 37.846 93.4644 37.6813C93.6062 37.5443 93.6935 37.3609 93.7103 37.165C93.7311 36.9576 93.7395 36.6217 93.7395 36.1281V29.8655C93.7395 29.4508 93.7541 29.1128 93.7832 28.8287L92.7414 28.8867V28.248H96.0191V28.7271C95.7559 28.7101 95.496 28.7931 95.2919 28.9593C95.1497 29.0954 95.0616 29.2781 95.0439 29.4736C95.0231 29.681 95.0147 30.0169 95.0147 30.5105V36.6714C95.0203 37.0542 95.0057 37.437 94.971 37.8182L96.0128 37.7601V38.3967H92.7351V37.9115Z" fill="black"/>
<path d="M99.7489 37.9404C99.0013 37.4906 98.3922 36.845 97.9881 36.0741C97.5634 35.2704 97.3484 34.3734 97.363 33.4654C97.3566 32.5451 97.5537 31.6347 97.9402 30.7986C98.3139 29.9792 98.9081 29.2787 99.6572 28.7747C100.477 28.2413 101.441 27.9706 102.42 27.9991C103.468 27.9939 104.493 28.3025 105.363 28.8846L105.29 28.1007H106.075V31.4663H105.552C105.453 30.5677 105.135 29.8648 104.598 29.3574C104.318 29.1005 103.99 28.9011 103.632 28.7705C103.274 28.6399 102.895 28.5807 102.514 28.5963C101.841 28.5913 101.183 28.791 100.628 29.1687C100.037 29.579 99.5701 30.1437 99.28 30.8007C98.9366 31.5711 98.7673 32.4071 98.7841 33.2497C98.7697 34.0745 98.9495 34.8913 99.3092 35.6345C99.6263 36.2959 100.114 36.8618 100.722 37.2748C101.304 37.6619 101.989 37.8664 102.689 37.8616C103.339 37.8609 103.981 37.712 104.564 37.4262C105.156 37.1454 105.667 36.7211 106.05 36.1923L106.429 36.4972C105.948 37.2131 105.277 37.7828 104.491 38.1437C103.804 38.4485 103.06 38.6088 102.308 38.6144C101.408 38.6315 100.522 38.398 99.7489 37.9404Z" fill="black"/>
<path d="M107.667 37.9115C107.931 37.9281 108.191 37.846 108.397 37.6813C108.538 37.5439 108.626 37.3609 108.645 37.165C108.663 36.9576 108.674 36.6217 108.674 36.1281V29.8655C108.674 29.4508 108.688 29.1128 108.717 28.8287L107.676 28.8867V28.248H114.675L114.748 30.7863H114.266C114.266 29.992 114.096 29.4529 113.75 29.1626C113.404 28.8722 112.916 28.7374 112.291 28.7478L111.041 28.7768C110.775 28.7634 110.511 28.8314 110.284 28.9718C110.126 29.0979 110.021 29.2796 109.993 29.4798C109.946 29.8185 109.926 30.1604 109.934 30.5022V32.8206L112.672 32.8371L112.57 31.5929H113.212V34.6392H112.737C112.751 34.3568 112.707 34.0746 112.608 33.8097C112.57 33.7228 112.515 33.6445 112.446 33.5796C112.377 33.5147 112.295 33.4645 112.206 33.4323C111.962 33.3614 111.709 33.3299 111.455 33.339L111.003 33.3535L109.941 33.397V36.715C109.946 37.0922 109.931 37.4695 109.897 37.8451L112.679 37.8037C113.36 37.7933 113.879 37.6212 114.239 37.2873C114.6 36.9535 114.777 36.377 114.777 35.5558H115.273L115.185 38.3822H107.667V37.9115Z" fill="black"/>
<path d="M118.761 38.4347C118.327 38.3219 117.915 38.1353 117.544 37.8831L117.617 38.5052H116.861L116.773 35.4174H117.342C117.39 36.2469 117.675 36.8877 118.201 37.3398C118.76 37.8001 119.471 38.0393 120.197 38.0116C120.736 38.0285 121.264 37.8576 121.691 37.5285C121.889 37.3693 122.047 37.1661 122.152 36.9353C122.257 36.7045 122.306 36.4524 122.295 36.1992C122.305 35.816 122.184 35.4408 121.951 35.1354C121.724 34.8373 121.441 34.5858 121.118 34.3951C120.782 34.1988 120.327 33.9693 119.755 33.7066C119.105 33.3977 118.588 33.126 118.205 32.8958C117.816 32.6589 117.482 32.3448 117.221 31.973C116.935 31.5583 116.789 31.0637 116.804 30.5608C116.808 30.1589 116.9 29.7625 117.073 29.3996C117.279 28.9862 117.604 28.6433 118.007 28.4146C118.542 28.1185 119.149 27.975 119.761 27.9998C120.206 28.0007 120.649 28.0572 121.08 28.1678C121.52 28.2779 121.933 28.4723 122.297 28.7401L122.239 28.118H122.981V31.3074H122.458C122.43 30.6001 122.172 29.9211 121.722 29.3726C121.494 29.1083 121.207 28.8996 120.885 28.7627C120.563 28.6257 120.213 28.5641 119.863 28.5825C119.614 28.5687 119.365 28.6045 119.13 28.6878C118.895 28.7711 118.679 28.9003 118.494 29.0678C118.332 29.2245 118.204 29.4131 118.119 29.6216C118.033 29.83 117.992 30.0538 117.998 30.2788C117.991 30.6406 118.109 30.9939 118.334 31.2783C118.559 31.5606 118.836 31.7972 119.151 31.9751C119.47 32.1576 119.922 32.3898 120.505 32.6553C121.051 32.8978 121.584 33.1692 122.101 33.4682C122.505 33.7114 122.854 34.0347 123.127 34.4179C123.419 34.8447 123.565 35.3537 123.543 35.8695C123.553 36.377 123.414 36.8764 123.143 37.3066C122.856 37.7379 122.448 38.076 121.97 38.2792C121.39 38.5225 120.764 38.6405 120.134 38.6255C119.67 38.6235 119.208 38.5593 118.761 38.4347Z" fill="black"/>
<path d="M125.514 40.6962C125.712 40.4206 125.869 40.1182 125.981 39.7983C126.119 39.4316 126.19 39.0431 126.189 38.6515C126.192 38.5642 126.187 38.4768 126.175 38.3902C126.062 38.4454 125.938 38.4751 125.812 38.4773C125.722 38.4795 125.632 38.4621 125.549 38.4263C125.466 38.3905 125.391 38.3371 125.331 38.2699C125.203 38.1311 125.135 37.948 125.141 37.7598C125.134 37.6456 125.151 37.5311 125.191 37.4239C125.231 37.3167 125.294 37.2191 125.375 37.1377C125.449 37.0636 125.538 37.0054 125.636 36.9666C125.734 36.9277 125.838 36.909 125.944 36.9117C126.09 36.9066 126.236 36.9376 126.368 37.002C126.5 37.0664 126.614 37.1621 126.7 37.2808C126.894 37.5586 126.992 37.8923 126.977 38.2305C126.957 38.7233 126.852 39.2089 126.665 39.6655C126.501 40.1481 126.241 40.5926 125.9 40.972L125.514 40.6962Z" fill="black"/>
<path d="M132.507 37.9115C132.77 37.9291 133.03 37.8468 133.235 37.6813C133.376 37.5439 133.464 37.3609 133.483 37.165C133.501 36.9576 133.512 36.6217 133.512 36.1281V29.8655C133.512 29.4508 133.526 29.1128 133.555 28.8287L132.514 28.8867V28.248H135.791V28.7271C135.527 28.7096 135.267 28.7926 135.062 28.9593C134.92 29.0954 134.832 29.2781 134.814 29.4736C134.795 29.681 134.785 30.0169 134.785 30.5105V36.7316C134.79 37.1088 134.776 37.486 134.741 37.8617L137.467 37.8203C138.088 37.8092 138.554 37.6129 138.865 37.2313C139.176 36.8498 139.331 36.2387 139.33 35.3982H139.825L139.738 38.3988H132.507V37.9115Z" fill="black"/>
<path d="M140.928 37.9115C141.191 37.9291 141.451 37.8468 141.655 37.6813C141.797 37.5439 141.885 37.3609 141.903 37.165C141.922 36.9576 141.932 36.6217 141.932 36.1281V29.8655C141.932 29.4508 141.947 29.1128 141.976 28.8287L140.934 28.8867V28.248H144.212V28.7271C143.948 28.7096 143.687 28.7926 143.483 28.9593C143.342 29.0962 143.254 29.2784 143.235 29.4736C143.216 29.681 143.206 30.0169 143.206 30.5105V36.7316C143.211 37.1088 143.196 37.486 143.162 37.8617L145.887 37.8203C146.508 37.8092 146.974 37.6129 147.285 37.2313C147.597 36.8498 147.752 36.2387 147.752 35.3982H148.246L148.159 38.3988H140.928V37.9115Z" fill="black"/>
<path d="M151.322 37.9404C150.574 37.4899 149.965 36.8445 149.559 36.0741C149.134 35.2704 148.919 34.3733 148.934 33.4653C148.928 32.5453 149.124 31.6351 149.509 30.7986C149.883 29.9786 150.478 29.2779 151.228 28.7746C152.047 28.2416 153.011 27.971 153.989 27.9991C155.039 27.9956 156.065 28.3079 156.933 28.8949L156.86 28.111H157.648V31.4663H157.123C157.024 30.5677 156.706 29.8647 156.169 29.3573C155.889 29.1003 155.56 28.9007 155.203 28.7701C154.845 28.6395 154.465 28.5804 154.085 28.5963C153.412 28.591 152.754 28.7907 152.199 29.1686C151.607 29.5783 151.14 30.1432 150.851 30.8006C150.506 31.5707 150.337 32.4069 150.355 33.2497C150.34 34.0745 150.52 34.8912 150.88 35.6344C151.197 36.2958 151.685 36.8618 152.293 37.2747C152.875 37.6622 153.56 37.8667 154.26 37.8616C154.91 37.8607 155.552 37.7117 156.135 37.4261C156.726 37.1448 157.237 36.7206 157.621 36.1923L158 36.4971C157.518 37.2122 156.848 37.7817 156.062 38.1436C155.374 38.4485 154.63 38.6087 153.876 38.6143C152.978 38.6313 152.093 38.3979 151.322 37.9404Z" fill="black"/>
<path d="M56.7048 44.1369C56.793 44.1432 56.8802 44.1158 56.9486 44.0601C56.9975 44.0129 57.0272 43.9494 57.032 43.8818C57.032 43.8134 57.0424 43.691 57.0424 43.5148V41.4784C57.0399 41.3503 57.0448 41.2222 57.057 41.0947L56.7048 41.1134V40.906C57.1799 40.906 57.5383 40.8957 57.8071 40.8957C58.1161 40.88 58.4232 40.9519 58.6927 41.103C58.7939 41.1684 58.876 41.2592 58.9305 41.3663C58.985 41.4733 59.0101 41.5929 59.0032 41.7127C58.9994 41.8946 58.9247 42.0678 58.7948 42.1959C58.6324 42.3543 58.4224 42.4556 58.1968 42.4841V42.4945C58.4844 42.475 58.7693 42.5597 58.999 42.733C59.0902 42.8087 59.163 42.904 59.2117 43.0118C59.2604 43.1196 59.2839 43.237 59.2803 43.3551C59.284 43.5348 59.2324 43.7114 59.1324 43.8611C59.0284 44.0087 58.8837 44.1233 58.7156 44.1908C58.5285 44.2694 58.327 44.3082 58.1239 44.3048H56.7048V44.1369ZM58.5802 43.9295C58.6572 43.8617 58.7176 43.7774 58.757 43.6829C58.7963 43.5884 58.8135 43.4862 58.8073 43.3841C58.8182 43.2748 58.8029 43.1644 58.7627 43.062C58.7225 42.9597 58.6585 42.8682 58.576 42.7952C58.398 42.6721 58.1841 42.6109 57.9676 42.621C57.7884 42.621 57.6217 42.621 57.4654 42.6355V43.7325C57.4675 43.8592 57.4626 43.9859 57.4508 44.112C57.5133 44.112 57.63 44.112 57.803 44.112H57.9676C58.1883 44.1249 58.4062 44.057 58.5802 43.9212V43.9295ZM57.8217 42.4364C57.9247 42.4452 58.0284 42.4312 58.1254 42.3953C58.2223 42.3595 58.31 42.3027 58.3822 42.2291C58.5015 42.0876 58.5645 41.9076 58.5594 41.7231C58.5704 41.6281 58.5571 41.5319 58.5206 41.4434C58.4842 41.3549 58.4258 41.2771 58.351 41.2171C58.1972 41.1207 58.018 41.0723 57.8363 41.0782C57.7563 41.0736 57.6764 41.0879 57.6029 41.1196C57.5503 41.1509 57.5121 41.2016 57.4967 41.2606C57.4764 41.3554 57.4673 41.4521 57.4696 41.5489V42.451L57.8217 42.4364Z" fill="black"/>
<path d="M60.4808 44.1925C60.2746 44.0643 60.1221 43.8661 60.0516 43.6346C59.9549 43.3126 59.9112 42.9772 59.9224 42.6413V41.6563C59.9224 41.449 59.9224 41.2623 59.9411 41.0943L59.5911 41.1068V40.8994H60.6829V41.0591C60.5392 41.0591 60.4475 41.0964 60.41 41.1711C60.3686 41.2556 60.3486 41.3488 60.3516 41.4427V42.6641C60.3477 42.9095 60.3729 43.1545 60.4266 43.3941C60.4713 43.5892 60.5753 43.7659 60.7246 43.9001C60.9021 44.0387 61.1245 44.1081 61.3497 44.095C61.4946 44.1053 61.6398 44.079 61.7717 44.0184C61.9036 43.9579 62.0179 43.8651 62.1041 43.7487C62.2828 43.4669 62.3721 43.1381 62.3604 42.8051L62.3749 41.4407C62.3737 41.3244 62.3786 41.2081 62.3895 41.0923L62.0436 41.1109V40.9036H62.9563V41.0632C62.8666 41.0572 62.778 41.0854 62.7083 41.142C62.6601 41.1871 62.6303 41.2485 62.625 41.3142C62.625 41.3805 62.6146 41.4946 62.6146 41.6605L62.6042 42.7865C62.6192 43.1924 62.5095 43.5932 62.2895 43.9353C62.1747 44.087 62.0231 44.2073 61.8489 44.2849C61.6748 44.3625 61.4837 44.3949 61.2935 44.3791C61.0106 44.3909 60.7299 44.3264 60.4808 44.1925Z" fill="black"/>
<path d="M63.3728 44.1361C63.4609 44.1416 63.5478 44.1143 63.6166 44.0594C63.6637 44.0134 63.6932 43.9525 63.7 43.8873C63.7 43.8209 63.7 43.7048 63.7 43.5389V41.4424C63.7 41.3055 63.7 41.1894 63.7146 41.094L63.3645 41.1126V40.9053H64.4606V41.065C64.3723 41.06 64.2853 41.0881 64.2168 41.1438C64.1699 41.1896 64.141 41.2507 64.1355 41.3159C64.1296 41.4312 64.1296 41.5468 64.1355 41.6622V43.7255C64.1377 43.8536 64.1328 43.9816 64.1209 44.1091L64.471 44.0884V44.2958H63.3728V44.1361Z" fill="black"/>
<path d="M65.0086 44.1361C65.0967 44.142 65.1837 44.1146 65.2524 44.0594C65.2994 44.0134 65.3289 43.9525 65.3357 43.8873C65.3357 43.8209 65.3357 43.7048 65.3357 43.5389V41.4424C65.3357 41.3055 65.3357 41.1894 65.3503 41.094L65.0002 41.1126V40.9053H66.0984V41.065C66.01 41.0592 65.9227 41.0874 65.8546 41.1438C65.8063 41.1888 65.7766 41.2502 65.7712 41.3159C65.7712 41.3822 65.7608 41.4963 65.7608 41.6622V43.7359C65.7629 43.8625 65.7581 43.9892 65.7462 44.1154L66.6589 44.1009C66.7469 44.1054 66.8348 44.09 66.916 44.0559C66.9972 44.0218 67.0696 43.9698 67.1277 43.9039C67.2472 43.7193 67.3015 43.5004 67.2819 43.2817H67.4486L67.4195 44.2854H65.0086V44.1361Z" fill="black"/>
<path d="M67.8281 44.1366C67.9162 44.1421 68.0031 44.1147 68.0719 44.0598C68.1185 44.0138 68.1473 43.9528 68.1532 43.8877C68.1626 43.7718 68.1661 43.6556 68.1636 43.5393V41.4428C68.1636 41.306 68.1636 41.1898 68.1782 41.0944L67.8281 41.1131V40.9057H68.9784C69.4999 40.8731 70.0163 41.0243 70.437 41.3329C70.6198 41.4902 70.7634 41.6878 70.8563 41.9098C70.9493 42.1319 70.989 42.3724 70.9725 42.6124C70.9771 42.9075 70.9053 43.1989 70.7641 43.4585C70.6201 43.7212 70.403 43.9372 70.139 44.0806C69.8273 44.2417 69.4794 44.3209 69.1284 44.3107H67.8469L67.8281 44.1366ZM69.8327 43.9085C70.0444 43.7748 70.2146 43.5853 70.3244 43.361C70.4452 43.1182 70.506 42.8501 70.5016 42.5792C70.5132 42.3777 70.4846 42.1759 70.4174 41.9854C70.3501 41.795 70.2456 41.6197 70.1098 41.4698C69.8514 41.2043 69.4597 41.0696 68.9346 41.0696C68.8476 41.0617 68.7608 41.0861 68.6908 41.138C68.6437 41.182 68.6147 41.2419 68.6095 41.306C68.6001 41.4211 68.5966 41.5367 68.5991 41.6523V43.726C68.5991 43.8939 68.5991 44.0204 68.5845 44.1055C68.697 44.1055 68.8721 44.1055 69.1055 44.1055C69.3619 44.1107 69.6144 44.0423 69.8327 43.9085Z" fill="black"/>
<path d="M71.4119 44.1361C71.5 44.1425 71.5872 44.115 71.6557 44.0594C71.7027 44.0134 71.7322 43.9525 71.739 43.8873C71.739 43.8209 71.7494 43.7048 71.7494 43.5389V41.4424C71.7482 41.3261 71.753 41.2098 71.764 41.094L71.4119 41.1126V40.9053H72.51V41.065C72.4216 41.0592 72.3343 41.0874 72.2662 41.1438C72.2179 41.1888 72.1882 41.2502 72.1829 41.3159C72.1829 41.3822 72.1829 41.4963 72.1829 41.6622V43.7255C72.1851 43.8536 72.1802 43.9816 72.1683 44.1091L72.5204 44.0884V44.2958H71.4223L71.4119 44.1361Z" fill="black"/>
<path d="M73.5981 41.5446L73.6127 43.6183C73.6127 43.836 73.6127 43.9957 73.6127 44.0994L73.9628 44.0786V44.286H73.0709V44.1263C73.1202 44.1331 73.1704 44.1262 73.2159 44.1064C73.2615 44.0867 73.3007 44.0548 73.3293 44.0144C73.3734 43.9307 73.3949 43.8371 73.3918 43.7427V41.0842L73.0647 41.1029V40.8955H73.644L75.7277 43.6618V41.4388C75.7265 41.3225 75.7313 41.2062 75.7423 41.0904L75.3922 41.1091V40.9017H76.2924V41.0614C76.2192 41.0615 76.1474 41.0808 76.084 41.1174C76.0381 41.1512 76.0062 41.2007 75.9944 41.2563C75.9794 41.3328 75.9724 41.4107 75.9736 41.4886V41.6586V44.3773H75.7402L73.5981 41.5446Z" fill="black"/>
<path d="M77.4946 44.1678C77.2461 44.0323 77.0426 43.8276 76.9091 43.5789C76.7636 43.2985 76.6919 42.986 76.7007 42.6706C76.6992 42.3609 76.7653 42.0545 76.8945 41.7727C77.019 41.495 77.2189 41.2573 77.4717 41.0863C77.746 40.9054 78.0699 40.8134 78.3989 40.8229C78.5789 40.8236 78.7581 40.8466 78.9324 40.8914C79.0996 40.9335 79.2596 40.9999 79.4075 41.0884L79.3887 40.8561H79.6575V41.9676H79.4804C79.4766 41.8355 79.4461 41.7055 79.3906 41.5854C79.3351 41.4653 79.2558 41.3576 79.1574 41.2688C78.9676 41.115 78.7328 41.0266 78.4882 41.0169C78.2436 41.0072 78.0024 41.0766 77.8009 41.2149C77.6039 41.3564 77.4473 41.5465 77.3466 41.7665C77.2327 42.015 77.1758 42.2855 77.1799 42.5586C77.1748 42.8396 77.2309 43.1184 77.3445 43.3757C77.4441 43.6017 77.6041 43.7961 77.8071 43.9377C78.0064 44.0754 78.2439 44.1479 78.4864 44.145C78.6324 44.1441 78.7775 44.1232 78.9178 44.0828C79.0611 44.0447 79.197 43.983 79.3199 43.9003V42.8386L78.9782 42.8572V42.6499H80.0805V42.8096C80.0187 42.8013 79.9559 42.8146 79.9027 42.847C79.8496 42.8795 79.8093 42.9293 79.7888 42.9879C79.7478 43.1173 79.7281 43.2525 79.7304 43.3881V44.116H79.5992C79.4172 44.1258 79.2385 44.1687 79.072 44.2425C78.96 44.2848 78.8442 44.316 78.7261 44.3358C78.6048 44.3561 78.4822 44.3672 78.3593 44.369C78.0584 44.3775 77.7605 44.3082 77.4946 44.1678Z" fill="black"/>
<path d="M82.4787 44.1373C82.53 44.1422 82.5818 44.1341 82.6291 44.1138C82.6765 44.0935 82.7179 44.0617 82.7496 44.0212C82.7962 43.9178 82.817 43.8046 82.81 43.6915V43.5401V41.0807H82.3078C82.2239 41.0737 82.1396 41.0892 82.0637 41.1257C81.9878 41.1622 81.9232 41.2182 81.8765 41.288C81.7764 41.4855 81.7318 41.7062 81.7473 41.9268H81.5681L81.5973 40.9023H84.4395L84.4687 41.9268H84.2832C84.2858 41.7616 84.2655 41.5969 84.2228 41.4374C84.1934 41.3276 84.1263 41.2315 84.0332 41.1657C83.9166 41.1001 83.7835 41.0691 83.6498 41.0765H83.233V43.7226C83.233 43.8947 83.233 44.0212 83.2184 44.1062L83.6227 44.0855V44.2928H82.4766L82.4787 44.1373Z" fill="black"/>
<path d="M84.8545 44.137C84.9425 44.1425 85.0294 44.1151 85.0983 44.0603C85.1446 44.0138 85.174 43.9532 85.1816 43.8881C85.1816 43.8218 85.1816 43.7056 85.1816 43.5398V41.4432C85.1816 41.3064 85.1816 41.1902 85.1962 41.0949L84.8461 41.1135V40.9061C85.1837 40.9061 85.4379 40.8958 85.6109 40.8958C85.7838 40.8958 85.8838 40.8958 85.963 40.8958C86.3137 40.8751 86.663 40.955 86.9695 41.126C87.0729 41.1961 87.1565 41.2914 87.2123 41.4029C87.2682 41.5143 87.2943 41.6382 87.2883 41.7626C87.2921 41.9818 87.2183 42.1954 87.0799 42.366C86.8958 42.5706 86.6433 42.7018 86.3693 42.7352C86.4254 42.7785 86.4758 42.8287 86.5194 42.8845C86.5652 42.9425 86.6277 43.0338 86.7048 43.1561L87.0361 43.6766C87.1091 43.7886 87.1674 43.884 87.2153 43.9358C87.2617 43.9954 87.3198 44.0448 87.3862 44.081C87.4619 44.1205 87.5466 44.1398 87.6321 44.137V44.2967H87.007C86.9244 44.2289 86.8503 44.1517 86.7861 44.0665C86.7257 43.9877 86.6548 43.8861 86.5777 43.7596L86.2506 43.2391L86.186 43.1375C86.1339 43.0504 86.0901 42.9799 86.0505 42.9301C86.0137 42.8772 85.9711 42.8285 85.9234 42.7849H85.7859H85.5921V43.7264C85.5921 43.8985 85.5921 44.025 85.5775 44.11L85.9276 44.0893V44.2967H84.8315L84.8545 44.137ZM86.8236 41.8165C86.8322 41.7149 86.818 41.6127 86.7819 41.5173C86.7459 41.4219 86.6889 41.3357 86.6152 41.2649C86.4253 41.1264 86.1914 41.0609 85.9568 41.0803C85.8701 41.0721 85.7834 41.0957 85.713 41.1467C85.6664 41.1902 85.6374 41.2492 85.6317 41.3126C85.6257 41.4273 85.6257 41.5422 85.6317 41.6568V42.5879C85.7296 42.5879 85.8005 42.5983 85.8401 42.5983C86.5027 42.5983 86.8236 42.3391 86.8236 41.8165Z" fill="black"/>
<path d="M88.6616 44.1925C88.4554 44.0643 88.3029 43.8661 88.2324 43.6346C88.1357 43.3126 88.092 42.9772 88.1032 42.6413V41.6563C88.1032 41.449 88.1032 41.2623 88.1219 41.0943L87.7698 41.1068V40.8994H88.8637V41.0591C88.72 41.0591 88.6283 41.0964 88.5908 41.1711C88.5494 41.2556 88.5294 41.3488 88.5324 41.4427V42.6641C88.5285 42.9095 88.5537 43.1545 88.6074 43.3941C88.6521 43.5892 88.7561 43.7659 88.9054 43.9001C89.0857 44.0412 89.3122 44.1107 89.541 44.095C89.6858 44.1053 89.831 44.079 89.9629 44.0184C90.0948 43.9579 90.2091 43.8651 90.2953 43.7487C90.4725 43.4663 90.5616 43.1379 90.5516 42.8051L90.5662 41.4407C90.5649 41.3244 90.5698 41.2081 90.5807 41.0923L90.2328 41.1109V40.9036H91.1413V41.0632C91.051 41.0577 90.9619 41.0858 90.8912 41.142C90.8443 41.1879 90.8155 41.249 90.81 41.3142C90.804 41.4295 90.804 41.5451 90.81 41.6605V42.7865C90.825 43.1924 90.7153 43.5932 90.4953 43.9353C90.3805 44.087 90.2289 44.2073 90.0547 44.2849C89.8806 44.3625 89.6895 44.3949 89.4993 44.3791C89.208 44.3958 88.9179 44.3312 88.6616 44.1925Z" fill="black"/>
<path d="M92.2352 44.3107C92.0861 44.2751 91.9448 44.2126 91.8184 44.1261L91.8414 44.3335H91.5892L91.5601 43.2966H91.7497C91.7505 43.4177 91.7765 43.5373 91.826 43.6479C91.8755 43.7586 91.9474 43.8578 92.0372 43.9395C92.2251 44.0932 92.4631 44.1729 92.7061 44.1635C92.8867 44.1692 93.0635 44.112 93.2062 44.0017C93.2736 43.9492 93.3275 43.8817 93.3637 43.8046C93.3999 43.7275 93.4174 43.643 93.4146 43.5579C93.4172 43.4297 93.3769 43.3042 93.3 43.2013C93.2223 43.1016 93.1261 43.0178 93.0166 42.9545C92.8686 42.8693 92.7163 42.7917 92.5603 42.7222C92.3519 42.6185 92.1706 42.5294 92.0414 42.4506C91.9116 42.372 91.7995 42.2675 91.7122 42.1437C91.617 42.0038 91.5689 41.8376 91.5746 41.6688C91.5764 41.5344 91.6077 41.4021 91.6663 41.281C91.7355 41.1434 91.8433 41.0289 91.9768 40.9513C92.1575 40.8542 92.3613 40.8076 92.5665 40.8165C92.7149 40.8158 92.8627 40.8346 93.0062 40.8725C93.1567 40.907 93.2986 40.972 93.4229 41.0633L93.4021 40.8559H93.6521V41.9239H93.4771C93.4672 41.6871 93.3802 41.46 93.2291 41.2769C93.1526 41.1877 93.0563 41.1173 92.9478 41.0712C92.8394 41.0252 92.7217 41.0047 92.604 41.0114C92.5206 41.0065 92.4371 41.0183 92.3583 41.0461C92.2796 41.0739 92.2073 41.1171 92.1456 41.1732C92.0903 41.2269 92.0469 41.2916 92.0182 41.363C91.9895 41.4344 91.9761 41.511 91.9789 41.5879C91.9765 41.7094 92.0162 41.8281 92.0914 41.9239C92.1673 42.0173 92.2598 42.096 92.3644 42.1561C92.4727 42.2162 92.6228 42.293 92.8186 42.3842C93.0014 42.4647 93.1795 42.5554 93.3521 42.6559C93.4875 42.7368 93.6046 42.8448 93.6959 42.9731C93.7934 43.1152 93.8431 43.2844 93.8376 43.4563C93.8411 43.6262 93.7948 43.7934 93.7042 43.9374C93.6077 44.0818 93.4708 44.195 93.3104 44.263C93.1161 44.3446 92.9065 44.3841 92.6957 44.3791C92.5397 44.3777 92.3848 44.3546 92.2352 44.3107Z" fill="black"/>
<path d="M95.0665 44.1373C95.1178 44.1422 95.1696 44.1341 95.2169 44.1138C95.2643 44.0935 95.3057 44.0617 95.3374 44.0212C95.384 43.9178 95.4048 43.8046 95.3978 43.6915V43.5401V41.0807H94.8956C94.8117 41.0737 94.7274 41.0892 94.6515 41.1257C94.5756 41.1622 94.511 41.2182 94.4643 41.288C94.3642 41.4855 94.3196 41.7062 94.3351 41.9268H94.1538L94.1851 40.9023H97.0273L97.0565 41.9268H96.871C96.8736 41.7616 96.8533 41.5969 96.8106 41.4374C96.7811 41.3276 96.7141 41.2315 96.621 41.1657C96.5044 41.1001 96.3713 41.0691 96.2376 41.0765H95.8208V43.7226C95.8208 43.8947 95.8208 44.0212 95.8062 44.1062L96.2105 44.0855V44.2928H95.0644L95.0665 44.1373Z" fill="black"/>
<path d="M97.2753 45.0698C97.3424 44.9773 97.3951 44.8752 97.4316 44.767C97.4797 44.6448 97.5044 44.5147 97.5045 44.3834C97.507 44.3544 97.507 44.3253 97.5045 44.2963C97.4664 44.3154 97.4243 44.3254 97.3816 44.3253C97.3516 44.3264 97.3218 44.321 97.2941 44.3096C97.2664 44.2981 97.2415 44.2809 97.2211 44.259C97.179 44.2124 97.1566 44.1515 97.1586 44.0889C97.1565 44.0509 97.1623 44.0129 97.1756 43.9773C97.1888 43.9416 97.2093 43.909 97.2357 43.8816C97.2865 43.8327 97.3547 43.8058 97.4253 43.8069C97.4748 43.8048 97.524 43.8151 97.5684 43.8369C97.6128 43.8586 97.651 43.8911 97.6796 43.9313C97.7451 44.0239 97.778 44.1355 97.7733 44.2486C97.7664 44.4139 97.7304 44.5767 97.6671 44.7297C97.613 44.8906 97.5265 45.0388 97.4128 45.1652L97.2753 45.0698Z" fill="black"/>
<path d="M99.6176 44.1361C99.7056 44.1416 99.7926 44.1143 99.8614 44.0594C99.908 44.0133 99.9368 43.9524 99.9427 43.8873C99.9486 43.7712 99.9486 43.6549 99.9427 43.5389V41.4424C99.9427 41.3055 99.9427 41.1894 99.9572 41.094L99.6072 41.1126V40.9053H101.951L101.976 41.7555H101.816C101.837 41.6641 101.835 41.5689 101.81 41.4786C101.784 41.3883 101.737 41.3056 101.672 41.2381C101.606 41.1705 101.525 41.1203 101.435 41.0919C101.346 41.0635 101.25 41.0578 101.157 41.0753L100.741 41.0857C100.651 41.0805 100.563 41.1029 100.487 41.15C100.433 41.1923 100.398 41.253 100.389 41.32C100.374 41.4334 100.367 41.5478 100.37 41.6622V42.4398H101.287L101.251 42.0251H101.46V43.0433H101.299C101.304 42.95 101.289 42.8568 101.255 42.7695C101.243 42.7404 101.225 42.7141 101.202 42.6924C101.179 42.6706 101.152 42.6538 101.122 42.643C101.04 42.6194 100.955 42.6089 100.87 42.6119H100.72L100.364 42.6265V43.738C100.364 43.9059 100.364 44.0324 100.349 44.1174L101.28 44.1029C101.47 44.1119 101.655 44.0505 101.801 43.9308C101.87 43.8514 101.921 43.7589 101.952 43.6591C101.983 43.5592 101.994 43.4541 101.983 43.3502H102.147L102.118 44.2958H99.6176V44.1361Z" fill="black"/>
<path d="M103.201 41.5446L103.216 43.6183C103.216 43.836 103.216 43.9957 103.206 44.0994L103.558 44.0786V44.286H102.664V44.1263C102.713 44.1333 102.763 44.1265 102.809 44.1067C102.855 44.087 102.894 44.055 102.922 44.0144C102.968 43.9312 102.99 43.8374 102.987 43.7427V41.0842L102.66 41.1029V40.8955H103.241L105.325 43.6618V41.4388C105.324 41.3225 105.328 41.2062 105.339 41.0904L104.987 41.1091V40.9017H105.881V41.0614C105.808 41.0609 105.736 41.0803 105.673 41.1174C105.626 41.1506 105.593 41.2002 105.581 41.2563C105.567 41.3329 105.561 41.4107 105.562 41.4886V41.6586L105.552 44.3773H105.319L103.201 41.5446Z" fill="black"/>
<path d="M107.048 44.3107C106.899 44.2752 106.758 44.2126 106.631 44.1262L106.656 44.3335H106.402L106.373 43.2967H106.563C106.564 43.4178 106.59 43.5374 106.639 43.648C106.688 43.7586 106.76 43.8579 106.85 43.9395C107.038 44.0928 107.276 44.1724 107.519 44.1635C107.7 44.1692 107.877 44.112 108.019 44.0018C108.087 43.9496 108.141 43.8822 108.177 43.805C108.214 43.7278 108.231 43.6431 108.228 43.558C108.231 43.4296 108.191 43.3037 108.113 43.2013C108.035 43.1017 107.939 43.0179 107.83 42.9545C107.683 42.8688 107.531 42.7913 107.375 42.7223C107.197 42.6405 107.023 42.5498 106.854 42.4506C106.725 42.3714 106.613 42.267 106.525 42.1437C106.432 42.0032 106.384 41.8373 106.39 41.6688C106.391 41.5346 106.421 41.4023 106.479 41.2811C106.549 41.1429 106.657 41.0282 106.792 40.9513C106.972 40.854 107.175 40.8074 107.379 40.8166C107.529 40.8159 107.677 40.8347 107.821 40.8725C107.968 40.9078 108.107 40.9727 108.228 41.0633L108.209 40.856H108.457V41.9239H108.282C108.273 41.6874 108.186 41.4603 108.036 41.2769C107.959 41.188 107.863 41.1177 107.754 41.0717C107.646 41.0257 107.528 41.0051 107.411 41.0115C107.327 41.0066 107.244 41.0184 107.165 41.0462C107.086 41.0739 107.014 41.1172 106.952 41.1732C106.897 41.2271 106.854 41.2918 106.826 41.3632C106.797 41.4347 106.785 41.5112 106.788 41.588C106.785 41.7095 106.825 41.8281 106.9 41.9239C106.975 42.0183 107.068 42.0972 107.173 42.1562C107.279 42.2163 107.432 42.293 107.625 42.3843C107.809 42.4648 107.988 42.5555 108.161 42.6559C108.296 42.7379 108.412 42.8458 108.505 42.9732C108.602 43.1155 108.65 43.2847 108.644 43.4564C108.648 43.6262 108.602 43.7934 108.511 43.9375C108.415 44.0813 108.279 44.1944 108.119 44.263C107.922 44.3458 107.708 44.3854 107.494 44.3792C107.343 44.3766 107.193 44.3536 107.048 44.3107Z" fill="black"/>
<path d="M109.905 44.1925C109.699 44.0643 109.546 43.8661 109.476 43.6346C109.38 43.3124 109.337 42.9772 109.347 42.6413V41.6563C109.347 41.449 109.347 41.2623 109.365 41.0943L109.015 41.1068V40.8994H110.107V41.0591C109.966 41.0591 109.874 41.0964 109.834 41.1711C109.794 41.2559 109.774 41.3489 109.776 41.4427V42.6641C109.772 42.9095 109.797 43.1545 109.851 43.3941C109.896 43.5889 110 43.7654 110.149 43.9001C110.33 44.0411 110.557 44.1106 110.787 44.095C110.931 44.1053 111.076 44.079 111.208 44.0184C111.339 43.9579 111.453 43.865 111.539 43.7487C111.718 43.4669 111.807 43.1381 111.795 42.8051L111.81 41.4407C111.808 41.3244 111.813 41.2081 111.824 41.0923L111.478 41.1109V40.9036H112.385V41.0632C112.295 41.0572 112.206 41.0854 112.137 41.142C112.089 41.1877 112.06 41.2487 112.053 41.3142C112.053 41.3805 112.053 41.4946 112.053 41.6605V42.7865C112.068 43.1923 111.958 43.5928 111.739 43.9353C111.624 44.087 111.472 44.2073 111.297 44.2849C111.123 44.3624 110.931 44.3949 110.741 44.3791C110.45 44.3949 110.161 44.3303 109.905 44.1925Z" fill="black"/>
<path d="M112.799 44.1369C112.887 44.1433 112.975 44.1158 113.043 44.0602C113.091 44.0147 113.121 43.9536 113.126 43.8881C113.126 43.8217 113.137 43.7056 113.137 43.5397V41.4432C113.136 41.3269 113.14 41.2106 113.151 41.0948L112.799 41.1134V40.9061C113.137 40.9061 113.393 40.8957 113.566 40.8957C113.739 40.8957 113.839 40.8957 113.916 40.8957C114.268 40.8753 114.617 40.9552 114.925 41.1259C115.028 41.196 115.112 41.2913 115.168 41.4028C115.223 41.5143 115.25 41.6381 115.244 41.7625C115.246 41.9816 115.173 42.1948 115.035 42.366C114.85 42.5701 114.597 42.7011 114.323 42.7351C114.38 42.7778 114.431 42.828 114.475 42.8844C114.52 42.9424 114.581 43.0337 114.66 43.156L114.991 43.6765C115.062 43.7885 115.123 43.8839 115.169 43.9357C115.215 43.9949 115.273 44.0442 115.339 44.0809C115.415 44.1203 115.5 44.1395 115.585 44.1369V44.2966H114.973C114.889 44.2289 114.815 44.1516 114.75 44.0664C114.689 43.9876 114.618 43.886 114.541 43.7595L114.216 43.239L114.154 43.1374C114.102 43.0503 114.056 42.9798 114.016 42.93C113.98 42.8772 113.938 42.8285 113.891 42.7848H113.754H113.558V43.7263C113.56 43.8544 113.555 43.9824 113.543 44.1099L113.895 44.0892V44.2966H112.799V44.1369ZM114.771 41.8164C114.779 41.7149 114.765 41.6126 114.729 41.5172C114.693 41.4218 114.636 41.3356 114.562 41.2648C114.372 41.1267 114.138 41.0612 113.904 41.0803C113.817 41.0712 113.73 41.0949 113.66 41.1466C113.613 41.1899 113.583 41.2489 113.577 41.3125C113.577 41.3768 113.577 41.4909 113.577 41.6568V42.5878C113.674 42.5878 113.745 42.5982 113.785 42.5982C114.439 42.5982 114.771 42.339 114.771 41.8164Z" fill="black"/>
<path d="M115.862 44.1361C115.95 44.1425 116.038 44.115 116.106 44.0594C116.154 44.0139 116.183 43.9528 116.189 43.8873C116.189 43.8209 116.189 43.7048 116.189 43.5389V41.4424C116.188 41.3261 116.193 41.2098 116.204 41.094L115.852 41.1126V40.9053H116.95V41.065C116.862 41.0592 116.774 41.0874 116.706 41.1438C116.658 41.1888 116.628 41.2502 116.623 41.3159C116.623 41.3822 116.612 41.4963 116.612 41.6622V43.7255C116.615 43.8536 116.61 43.9816 116.598 44.1091L116.95 44.0884V44.2958H115.862V44.1361Z" fill="black"/>
<path d="M118.048 41.5446L118.063 43.6183C118.063 43.836 118.063 43.9957 118.063 44.0994L118.413 44.0786V44.286H117.521V44.1263C117.57 44.1331 117.621 44.1262 117.666 44.1064C117.712 44.0867 117.751 44.0548 117.78 44.0144C117.824 43.9307 117.845 43.8371 117.842 43.7427V41.0842L117.515 41.1029V40.8955H118.094L120.178 43.6618V41.4388C120.178 41.302 120.178 41.1858 120.193 41.0904L119.842 41.1091V40.9017H120.738V41.0614C120.665 41.0615 120.593 41.0808 120.53 41.1174C120.484 41.1512 120.452 41.2007 120.44 41.2563C120.426 41.3329 120.42 41.4107 120.422 41.4886V41.6586L120.411 44.3773H120.178L118.048 41.5446Z" fill="black"/>
<path d="M121.945 44.1678C121.696 44.0323 121.493 43.8276 121.359 43.5789C121.214 43.2985 121.142 42.986 121.151 42.6706C121.149 42.3608 121.215 42.0545 121.345 41.7727C121.47 41.4956 121.67 41.2581 121.922 41.0863C122.196 40.9056 122.52 40.8136 122.849 40.8229C123.029 40.8235 123.208 40.8465 123.383 40.8913C123.55 40.9339 123.711 41.0002 123.86 41.0883L123.839 40.8561H124.108V41.9676H123.933C123.929 41.8353 123.898 41.7053 123.842 41.5852C123.786 41.4651 123.706 41.3575 123.608 41.2688C123.406 41.0975 123.147 41.0073 122.882 41.0158C122.657 41.0182 122.439 41.0907 122.257 41.2231C122.061 41.3647 121.905 41.5549 121.805 41.7747C121.69 42.0227 121.632 42.2936 121.636 42.5669C121.631 42.8479 121.687 43.1266 121.801 43.3839C121.901 43.6101 122.062 43.8044 122.266 43.9459C122.464 44.0836 122.701 44.1561 122.943 44.1533C123.089 44.1524 123.234 44.1314 123.374 44.0911C123.518 44.0533 123.654 43.9916 123.776 43.9086V42.8468L123.435 42.8655V42.6581H124.537V42.8178C124.475 42.8096 124.412 42.8228 124.359 42.8553C124.306 42.8878 124.266 42.9375 124.245 42.9962C124.204 43.1256 124.185 43.2607 124.187 43.3964V44.116H124.056C123.874 44.1258 123.695 44.1687 123.528 44.2424C123.416 44.2847 123.301 44.316 123.183 44.3358C123.061 44.3561 122.939 44.3672 122.816 44.3689C122.513 44.3785 122.213 44.3092 121.945 44.1678Z" fill="black"/>
<path d="M126.942 44.1472C126.692 43.9975 126.488 43.7823 126.352 43.525C126.21 43.256 126.139 42.9558 126.144 42.652C126.142 42.3438 126.208 42.039 126.336 41.7583C126.461 41.4845 126.66 41.2505 126.911 41.0822C127.185 40.9035 127.508 40.813 127.836 40.823C128.187 40.8205 128.53 40.9231 128.821 41.1175L128.796 40.8562H129.059V41.9822H128.884C128.867 41.7158 128.754 41.4644 128.565 41.2751C128.376 41.102 128.126 41.0103 127.869 41.02C127.646 41.0198 127.428 41.0871 127.244 41.2129C127.047 41.3501 126.891 41.5388 126.794 41.7583C126.677 42.0191 126.62 42.3024 126.627 42.5877C126.622 42.864 126.683 43.1376 126.804 43.3861C126.909 43.6078 127.073 43.797 127.277 43.9336C127.471 44.0634 127.7 44.132 127.934 44.1306C128.15 44.13 128.364 44.0803 128.559 43.9854C128.756 43.8906 128.927 43.748 129.055 43.5707L129.182 43.6723C129.02 43.9112 128.796 44.1018 128.534 44.2239C128.303 44.3254 128.055 44.379 127.802 44.3815C127.499 44.3848 127.201 44.3036 126.942 44.1472Z" fill="black"/>
<path d="M130.309 44.1155C130.058 43.9534 129.858 43.7232 129.734 43.4519C129.611 43.183 129.548 42.8909 129.549 42.5954C129.549 42.3049 129.615 42.018 129.74 41.7556C129.869 41.4848 130.067 41.253 130.315 41.0837C130.591 40.9022 130.916 40.8102 131.247 40.8204C131.567 40.8091 131.884 40.8917 132.158 41.058C132.432 41.2242 132.65 41.4668 132.787 41.7556C132.915 42.0168 132.981 42.3037 132.981 42.5944C132.981 42.8851 132.915 43.172 132.787 43.4332C132.66 43.7055 132.461 43.9384 132.212 44.1072C131.937 44.2894 131.612 44.3821 131.282 44.3726C130.94 44.3841 130.601 44.2946 130.309 44.1155ZM131.945 43.9579C132.13 43.8114 132.273 43.62 132.362 43.4021C132.454 43.1755 132.501 42.9333 132.501 42.6888C132.501 42.4149 132.449 42.1434 132.349 41.8883C132.257 41.6484 132.106 41.4348 131.912 41.2662C131.724 41.1047 131.484 41.0176 131.236 41.0215C131.002 41.0139 130.771 41.0871 130.584 41.2289C130.397 41.3758 130.253 41.5699 130.167 41.7908C130.075 42.0189 130.028 42.2625 130.028 42.5083C130.03 42.7711 130.078 43.0315 130.17 43.2777C130.256 43.5238 130.404 43.7442 130.599 43.9185C130.786 44.0761 131.021 44.1658 131.266 44.1729C131.511 44.1801 131.751 44.1043 131.947 43.9579H131.945Z" fill="black"/>
<path d="M135.006 43.7382C134.758 43.1907 134.566 42.7615 134.431 42.4442C134.295 42.1269 134.16 41.7972 134.031 41.4467V41.6541C134 42.5997 133.983 43.2778 133.977 43.6822C133.98 43.7174 133.98 43.7528 133.977 43.7879C133.977 43.8904 133.973 43.9929 133.962 44.0949L134.329 44.0741V44.2815H133.387V44.1218C133.437 44.1281 133.488 44.1209 133.535 44.1008C133.582 44.0807 133.622 44.0486 133.652 44.0078C133.7 43.904 133.724 43.7905 133.722 43.676L133.831 41.0797L133.479 41.0921V40.8848H134.22L134.883 42.4089C135.122 42.9716 135.307 43.3988 135.437 43.6905L135.687 43.0684C135.811 42.7573 135.95 42.4158 136.104 42.044C136.289 41.6113 136.449 41.2262 136.583 40.8889H137.304V41.0486C137.257 41.0436 137.209 41.0496 137.164 41.0662C137.119 41.0827 137.079 41.1094 137.046 41.144C136.981 41.2434 136.951 41.3618 136.963 41.4799V41.5774L137.088 43.7859C137.096 43.8859 137.1 43.9862 137.098 44.0866L137.454 44.072V44.2794H136.363V44.1197C136.411 44.1247 136.461 44.1173 136.506 44.0981C136.551 44.0788 136.591 44.0485 136.621 44.0098C136.681 43.9175 136.716 43.8108 136.721 43.7009C136.724 43.6546 136.724 43.6082 136.721 43.5619L136.594 41.4882C136.586 41.5101 136.577 41.5316 136.567 41.5525C136.556 41.5795 136.544 41.6085 136.531 41.6437L135.433 44.3395H135.287L135.006 43.7382Z" fill="black"/>
<path d="M137.917 44.1369C138.005 44.1433 138.092 44.1158 138.161 44.0602C138.208 44.0148 138.238 43.9536 138.244 43.8881C138.244 43.8217 138.254 43.7056 138.254 43.5397V41.4432C138.253 41.3269 138.258 41.2106 138.269 41.0948L137.917 41.1135V40.9061C138.373 40.9061 138.736 40.8957 139.004 40.8957C139.388 40.8709 139.771 40.9588 140.105 41.1487C140.226 41.2297 140.324 41.3407 140.39 41.4708C140.455 41.601 140.485 41.7458 140.478 41.8911C140.477 42.0806 140.426 42.2666 140.33 42.4303C140.207 42.6214 140.028 42.7705 139.817 42.8574C139.512 42.9831 139.184 43.0411 138.854 43.0275C138.779 43.0275 138.721 43.0275 138.679 43.0275V43.7325C138.681 43.8606 138.676 43.9887 138.663 44.1162L139.113 44.0913V44.309H137.917V44.1369ZM139.505 42.7227C139.658 42.654 139.788 42.5414 139.877 42.3992C139.966 42.2571 140.01 42.0917 140.005 41.9243C140.015 41.8038 139.996 41.6827 139.949 41.5711C139.902 41.4595 139.829 41.3609 139.736 41.2835C139.519 41.1346 139.259 41.0616 138.996 41.0761C138.913 41.0672 138.829 41.091 138.763 41.1425C138.719 41.1868 138.693 41.2447 138.688 41.3063C138.688 41.3685 138.688 41.4847 138.688 41.6526V42.8118C138.793 42.824 138.899 42.8295 139.004 42.8284C139.177 42.83 139.348 42.7939 139.505 42.7227Z" fill="black"/>
<path d="M140.849 44.1361C140.937 44.1425 141.024 44.115 141.092 44.0594C141.14 44.0139 141.17 43.9528 141.176 43.8873C141.176 43.8209 141.176 43.7048 141.176 43.5389V41.4424C141.174 41.3261 141.179 41.2098 141.19 41.094L140.838 41.1126V40.9053H141.936V41.065C141.848 41.0592 141.761 41.0874 141.692 41.1438C141.644 41.1888 141.614 41.2502 141.609 41.3159C141.609 41.3822 141.609 41.4963 141.609 41.6622V43.7359C141.611 43.8625 141.606 43.9892 141.595 44.1154L142.507 44.1009C142.594 44.1054 142.681 44.0905 142.762 44.0571C142.842 44.0237 142.914 43.9727 142.972 43.908C143.093 43.7242 143.148 43.5049 143.128 43.2859H143.293L143.264 44.2896H140.849V44.1361Z" fill="black"/>
<path d="M143.668 44.1361C143.756 44.1425 143.843 44.115 143.912 44.0594C143.96 44.0139 143.989 43.9528 143.995 43.8873C143.995 43.8209 143.995 43.7048 143.995 43.5389V41.4424C143.994 41.326 144 41.2097 144.012 41.094L143.66 41.1126V40.9053H144.758V41.065C144.669 41.0592 144.582 41.0874 144.514 41.1438C144.466 41.1888 144.436 41.2502 144.431 41.3159C144.431 41.3822 144.431 41.4963 144.431 41.6622V43.7255C144.433 43.8536 144.428 43.9816 144.416 44.1091L144.768 44.0884V44.2958H143.67L143.668 44.1361Z" fill="black"/>
<path d="M145.004 44.1369C145.074 44.1402 145.142 44.1205 145.2 44.0809C145.25 44.0417 145.29 43.9922 145.319 43.9357C145.362 43.8485 145.398 43.7584 145.429 43.6662L145.477 43.5293L146.481 40.8086H146.598L147.688 43.5687C147.724 43.6614 147.755 43.7563 147.779 43.8528C147.803 43.9344 147.814 44.0189 147.813 44.1037L148.146 44.083V44.2903H147.029V44.1307C147.221 44.1307 147.317 44.0498 147.317 43.8984C147.314 43.8201 147.297 43.7429 147.267 43.6703L147.096 43.2141L145.829 43.2431C145.779 43.3758 145.723 43.548 145.658 43.7616C145.623 43.8755 145.582 43.9876 145.535 44.0975L145.917 44.0768V44.2841H145.004V44.1369ZM147.029 43.0399L146.681 42.113L146.473 41.5157L146.265 42.0653L146.002 42.8014L145.919 43.0399H147.029Z" fill="black"/>
<path d="M148.907 41.5446L148.921 43.6183C148.921 43.836 148.921 43.9957 148.921 44.0994L149.271 44.0786V44.286H148.38V44.1263C148.429 44.1331 148.479 44.1262 148.525 44.1064C148.57 44.0867 148.609 44.0548 148.638 44.0144C148.682 43.9307 148.703 43.8371 148.7 43.7427V41.0842L148.373 41.1029V40.8955H148.953L151.036 43.6618V41.4388C151.036 41.302 151.036 41.1858 151.051 41.0904L150.701 41.1091V40.9017H151.597V41.0614C151.524 41.0615 151.452 41.0808 151.388 41.1174C151.343 41.1512 151.311 41.2007 151.299 41.2563C151.285 41.3329 151.278 41.4107 151.28 41.4886V41.6586V44.3773H151.047L148.907 41.5446Z" fill="black"/>
<path d="M152.805 44.1472C152.555 43.9969 152.351 43.7819 152.215 43.525C152.073 43.256 152.002 42.9558 152.007 42.652C152.005 42.3438 152.071 42.039 152.199 41.7583C152.324 41.4845 152.523 41.2505 152.774 41.0822C153.048 40.9035 153.371 40.813 153.699 40.823C154.05 40.8205 154.393 40.9231 154.684 41.1175L154.659 40.8562H154.924V41.9822H154.747C154.733 41.7161 154.621 41.4645 154.432 41.2751C154.244 41.1019 153.995 41.0101 153.738 41.02C153.515 41.0202 153.297 41.0874 153.113 41.2129C152.916 41.3501 152.76 41.5388 152.663 41.7583C152.547 42.0191 152.49 42.3024 152.497 42.5877C152.491 42.864 152.552 43.1376 152.674 43.3861C152.779 43.6074 152.943 43.7964 153.147 43.9336C153.341 44.0637 153.571 44.1323 153.805 44.1306C154.022 44.13 154.236 44.0804 154.43 43.9854C154.628 43.8906 154.798 43.748 154.926 43.5707L155.053 43.6723C154.892 43.9116 154.668 44.1023 154.405 44.2239C154.175 44.3254 153.926 44.379 153.674 44.3815C153.368 44.3864 153.067 44.3051 152.805 44.1472Z" fill="black"/>
<path d="M155.456 44.1361C155.544 44.1425 155.631 44.115 155.7 44.0594C155.747 44.0139 155.777 43.9528 155.783 43.8873C155.783 43.8209 155.783 43.7048 155.783 43.5389V41.4424C155.782 41.326 155.788 41.2097 155.8 41.094L155.448 41.1126V40.9053H157.794L157.819 41.7555H157.656C157.677 41.6641 157.675 41.5689 157.65 41.4786C157.625 41.3883 157.577 41.3056 157.512 41.2381C157.447 41.1705 157.365 41.1203 157.276 41.0919C157.186 41.0635 157.09 41.0578 156.998 41.0753L156.581 41.0857C156.492 41.0798 156.404 41.1023 156.329 41.15C156.275 41.1917 156.24 41.2528 156.231 41.32C156.214 41.4332 156.207 41.5477 156.21 41.6622V42.4398H157.127L157.094 42.0251H157.302V43.0433H157.142C157.146 42.95 157.131 42.8568 157.098 42.7695C157.085 42.7405 157.066 42.7143 157.043 42.6926C157.02 42.6708 156.992 42.654 156.962 42.643C156.881 42.6195 156.797 42.609 156.712 42.6119H156.56L156.204 42.6265V43.738C156.206 43.8646 156.201 43.9913 156.189 44.1174L157.121 44.1029C157.31 44.1114 157.497 44.0501 157.644 43.9308C157.711 43.8509 157.762 43.7584 157.793 43.6586C157.823 43.5589 157.834 43.454 157.823 43.3502H157.99L157.961 44.2958H155.456V44.1361Z" fill="black"/>
<defs>
<linearGradient id="paint0_linear_93_1386" x1="6.22865" y1="38.3709" x2="22.6968" y2="33.5191" gradientUnits="userSpaceOnUse">
<stop stop-color="#122162"/>
<stop offset="0.53" stop-color="#08C293"/>
<stop offset="0.58" stop-color="#09BA91"/>
<stop offset="0.67" stop-color="#0AA38A"/>
<stop offset="0.78" stop-color="#0C7F7F"/>
<stop offset="0.9" stop-color="#0F4C6F"/>
<stop offset="1" stop-color="#122162"/>
</linearGradient>
<linearGradient id="paint1_linear_93_1386" x1="39.254" y1="40.9485" x2="24.5244" y2="30.5589" gradientUnits="userSpaceOnUse">
<stop stop-color="#122162"/>
<stop offset="0.53" stop-color="#08C293"/>
<stop offset="0.58" stop-color="#09BA91"/>
<stop offset="0.67" stop-color="#0AA38A"/>
<stop offset="0.78" stop-color="#0C7F7F"/>
<stop offset="0.9" stop-color="#0F4C6F"/>
<stop offset="1" stop-color="#122162"/>
</linearGradient>
<linearGradient id="paint2_linear_93_1386" x1="20.6607" y1="55.7395" x2="24.4877" y2="40.0057" gradientUnits="userSpaceOnUse">
<stop stop-color="#122162"/>
<stop offset="0.53" stop-color="#08C293"/>
<stop offset="0.58" stop-color="#09BA91"/>
<stop offset="0.67" stop-color="#0AA38A"/>
<stop offset="0.78" stop-color="#0C7F7F"/>
<stop offset="0.9" stop-color="#0F4C6F"/>
<stop offset="1" stop-color="#122162"/>
</linearGradient>
<linearGradient id="paint3_linear_93_1386" x1="14.5736" y1="34.3638" x2="19.7609" y2="38.8555" gradientUnits="userSpaceOnUse">
<stop stop-color="#069470"/>
<stop offset="1" stop-color="#122162"/>
</linearGradient>
<linearGradient id="paint4_linear_93_1386" x1="34.1047" y1="30.1055" x2="28.7431" y2="34.4653" gradientUnits="userSpaceOnUse">
<stop stop-color="#069470"/>
<stop offset="1" stop-color="#122162"/>
</linearGradient>
<linearGradient id="paint5_linear_93_1386" x1="18.2262" y1="0.350462" x2="14.1788" y2="16.9645" gradientUnits="userSpaceOnUse">
<stop stop-color="#131131"/>
<stop offset="0.53" stop-color="#74A51E"/>
<stop offset="0.59" stop-color="#6F9D1F"/>
<stop offset="0.68" stop-color="#608622"/>
<stop offset="0.8" stop-color="#486227"/>
<stop offset="0.93" stop-color="#272F2D"/>
<stop offset="1" stop-color="#131131"/>
</linearGradient>
<linearGradient id="paint6_linear_93_1386" x1="-0.581761" y1="27.5" x2="15.7797" y2="19.8893" gradientUnits="userSpaceOnUse">
<stop stop-color="#131131"/>
<stop offset="0.53" stop-color="#74A51E"/>
<stop offset="0.59" stop-color="#6F9D1F"/>
<stop offset="0.68" stop-color="#608622"/>
<stop offset="0.8" stop-color="#486227"/>
<stop offset="0.93" stop-color="#272F2D"/>
<stop offset="1" stop-color="#131131"/>
</linearGradient>
<linearGradient id="paint7_linear_93_1386" x1="-4.1161" y1="4.06909" x2="7.56647" y2="15.3384" gradientUnits="userSpaceOnUse">
<stop stop-color="#131131"/>
<stop offset="0.53" stop-color="#74A51E"/>
<stop offset="0.59" stop-color="#6F9D1F"/>
<stop offset="0.68" stop-color="#608622"/>
<stop offset="0.8" stop-color="#486227"/>
<stop offset="0.93" stop-color="#272F2D"/>
<stop offset="1" stop-color="#131131"/>
</linearGradient>
<linearGradient id="paint8_linear_93_1386" x1="19.5811" y1="10.9375" x2="13.0626" y2="13.2233" gradientUnits="userSpaceOnUse">
<stop stop-color="#587D17"/>
<stop offset="1" stop-color="#131131"/>
</linearGradient>
<linearGradient id="paint9_linear_93_1386" x1="11.256" y1="27.1519" x2="10.1818" y2="20.3738" gradientUnits="userSpaceOnUse">
<stop stop-color="#587D17"/>
<stop offset="1" stop-color="#131131"/>
</linearGradient>
<linearGradient id="paint10_linear_93_1386" x1="45.5707" y1="29.3915" x2="33.209" y2="17.5221" gradientUnits="userSpaceOnUse">
<stop stop-color="#131131"/>
<stop offset="0.07" stop-color="#101E46"/>
<stop offset="0.29" stop-color="#074380"/>
<stop offset="0.44" stop-color="#0259A4"/>
<stop offset="0.53" stop-color="#0062B2"/>
<stop offset="0.6" stop-color="#015FAD"/>
<stop offset="0.69" stop-color="#03559D"/>
<stop offset="0.78" stop-color="#074584"/>
<stop offset="0.89" stop-color="#0C2F61"/>
<stop offset="0.99" stop-color="#131334"/>
<stop offset="1" stop-color="#131131"/>
</linearGradient>
<linearGradient id="paint11_linear_93_1386" x1="31.3222" y1="-0.375211" x2="29.7305" y2="17.5245" gradientUnits="userSpaceOnUse">
<stop stop-color="#131131"/>
<stop offset="0.07" stop-color="#101E46"/>
<stop offset="0.29" stop-color="#074380"/>
<stop offset="0.44" stop-color="#0259A4"/>
<stop offset="0.53" stop-color="#0062B2"/>
<stop offset="0.6" stop-color="#015FAD"/>
<stop offset="0.69" stop-color="#03559D"/>
<stop offset="0.78" stop-color="#074584"/>
<stop offset="0.89" stop-color="#0C2F61"/>
<stop offset="0.99" stop-color="#131334"/>
<stop offset="1" stop-color="#131131"/>
</linearGradient>
<linearGradient id="paint12_linear_93_1386" x1="53.4852" y1="8.2714" x2="37.8761" y2="12.8362" gradientUnits="userSpaceOnUse">
<stop stop-color="#131131"/>
<stop offset="0.53" stop-color="#0062B2"/>
<stop offset="0.59" stop-color="#015DAA"/>
<stop offset="0.7" stop-color="#054F93"/>
<stop offset="0.82" stop-color="#0A386F"/>
<stop offset="0.97" stop-color="#11183C"/>
<stop offset="1" stop-color="#131131"/>
</linearGradient>
<linearGradient id="paint13_linear_93_1386" x1="34.6801" y1="23.9116" x2="35.9692" y2="17.1294" gradientUnits="userSpaceOnUse">
<stop stop-color="#2056A5"/>
<stop offset="1" stop-color="#131131"/>
</linearGradient>
<linearGradient id="paint14_linear_93_1386" x1="27.0931" y1="10.2691" x2="33.55" y2="12.7306" gradientUnits="userSpaceOnUse">
<stop stop-color="#2056A5"/>
<stop offset="1" stop-color="#131131"/>
</linearGradient>
</defs>
</svg>
